<?xml version="1.0" encoding="UTF-8"?>
<svg width="81px" height="39px" viewBox="0 0 81 39" version="1.1" xmlns="http://www.w3.org/2000/svg" xmlns:xlink="http://www.w3.org/1999/xlink">
    <title>ucsf_dark</title>
    <defs>
        <polygon id="path-1" points="0 0 81 0 81 39 0 39"></polygon>
    </defs>
    <g id="Logos" stroke="none" stroke-width="1" fill="none" fill-rule="evenodd">
        <g id="Artboard" transform="translate(-47, -124)">
            <g id="ucsf_dark" transform="translate(47, 124)">
                <mask id="mask-2" fill="white">
                    <use xlink:href="#path-1"></use>
                </mask>
                <g id="Clip-2"></g>
                <path d="M43.4043899,24.8567644 C43.5287312,24.9572823 43.657712,25.0559387 43.7922605,25.1480801 C44.8361706,25.8740424 46.7541814,26.5469537 49.545365,27.1649524 L52.3848004,27.7903969 C54.0476332,28.146863 55.2613527,28.5573109 56.0268868,29.0217407 C56.7924208,29.4982698 57.1747239,30.1702503 57.1747239,31.038613 C57.1747239,32.5268358 56.3943431,33.5441138 54.8307978,34.0913777 C54.0077327,34.377109 52.935057,34.5195093 51.6146268,34.5195093 C49.4098886,34.5195093 47.8537667,33.9778297 46.9453329,32.8954013 C46.4488957,32.3006706 46.1148444,31.4015942 45.945963,30.2000334 L40.7134216,30.2000334 C40.7134216,32.9372837 41.7025844,35.0881798 43.68091,36.6527218 C45.6601636,38.2172637 48.3761857,39 51.8299042,39 C55.211245,39 57.8279797,38.2051643 59.6810361,36.6173544 C61.3856253,35.1561225 62.3033382,33.3486624 62.4406704,31.198697 L62.4406704,38.6044436 L68.2448105,38.6044436 L68.2448105,27.6647495 L79.2991225,27.6647495 L79.2991225,23.140515 L68.2448105,23.140515 L68.2448105,17.0210247 L81,17.0210247 L81,12.127294 L62.4406704,12.127294 L62.4406704,30.1600124 C62.340455,28.0472759 61.5712093,26.4082763 60.1153027,25.255113 C59.0120057,24.3830275 57.4076319,23.7771281 55.5787014,23.3452736 C54.5514938,23.093979 51.8104179,22.4573658 50.9743619,22.2563301 C50.1392338,22.0562251 48.4216538,21.6643916 47.490022,21.1673866 C46.5797324,20.682481 46.2085644,19.9006754 46.2085644,19.0593036 C46.2085644,17.9629143 46.677164,17.2313677 47.5419855,16.6440828 C48.4467076,16.0307377 49.6465083,15.812949 50.9743619,15.812949 C53.795239,15.812949 56.1892728,16.8330191 56.3562984,19.8466936 L61.6241007,19.8466936 C61.527597,17.0508078 60.4920382,14.9175954 58.5164964,13.447987 C56.5400266,11.9783786 54.1534161,11.2431091 51.3557371,11.2431091 C48.0050176,11.2431091 45.4643725,12.0230532 43.7347294,13.5820108 C42.671333,14.5397227 41.9364203,15.6500728 41.5272075,16.9093382 C41.5272075,16.9093382 41.4557577,17.1364341 41.4000825,17.3467771 C41.3434794,17.5580507 41.3045067,17.7479178 41.3045067,17.7479178 L41.3045067,17.7479178 C40.6633139,20.7820681 38.7156097,22.8426843 35.4586102,22.8426843 C30.2436993,22.8426843 28.2857879,18.3929074 28.2857879,13.9794287 C28.2857879,9.34536907 30.2436993,4.89652292 35.4586102,4.89652292 C38.34073,4.89652292 40.8563213,6.89757297 41.2256335,9.53058254 L46.8451175,9.53058254 C46.142682,3.41202301 41.2618224,0 35.4586102,0 C27.6659373,0 22.9372566,5.56571129 22.5159808,12.8988617 L22.5159808,0.631028805 L16.7099849,0.631028805 L16.7099849,17.0954824 C16.7099849,21.025917 15.3793475,22.8426843 11.2389681,22.8426843 C6.54276451,22.8426843 5.80414013,19.9872324 5.80414013,17.0954824 L5.80414013,0.631028805 L0,0.631028805 L0,17.0954824 C0,24.2899554 4.1394515,27.7382765 11.2389681,27.7382765 C18.3013678,27.7382765 22.5159808,24.2527265 22.5159808,17.0954824 L22.5159808,15.0311434 C22.9372566,22.1725652 27.6659373,27.7382765 35.4586102,27.7382765 C38.6608624,27.7382765 41.3908033,26.7023841 43.4043899,24.8567644" id="Fill-1" fill="#000000" mask="url(#mask-2)"></path>
            </g>
        </g>
    </g>
</svg>