<?xml version="1.0" encoding="UTF-8"?>
<svg width="40px" height="40px" viewBox="0 0 40 40" version="1.1" xmlns="http://www.w3.org/2000/svg" xmlns:xlink="http://www.w3.org/1999/xlink">
    <title>ph-profile</title>
    <defs>
        <rect id="path-1" x="0" y="0" width="40" height="40"></rect>
        <path d="M24.4,21.84375 C22.990625,21.84375 22.3129464,22.625 20,22.625 C17.6870536,22.625 17.0142857,21.84375 15.6,21.84375 C11.95625,21.84375 9,24.7832031 9,28.40625 L9,29.65625 C9,30.9501953 10.0558036,32 11.3571429,32 L28.6428571,32 C29.9441964,32 31,30.9501953 31,29.65625 L31,28.40625 C31,24.7832031 28.04375,21.84375 24.4,21.84375 Z M28.6428571,29.65625 L11.3571429,29.65625 L11.3571429,28.40625 C11.3571429,26.0820312 13.2625,24.1875 15.6,24.1875 C16.3169643,24.1875 17.4808036,24.96875 20,24.96875 C22.5388393,24.96875 23.678125,24.1875 24.4,24.1875 C26.7375,24.1875 28.6428571,26.0820312 28.6428571,28.40625 L28.6428571,29.65625 Z M20,21.0625 C23.9040179,21.0625 27.0714286,17.9130859 27.0714286,14.03125 C27.0714286,10.1494141 23.9040179,7 20,7 C16.0959821,7 12.9285714,10.1494141 12.9285714,14.03125 C12.9285714,17.9130859 16.0959821,21.0625 20,21.0625 Z M20,9.34375 C22.5977679,9.34375 24.7142857,11.4482422 24.7142857,14.03125 C24.7142857,16.6142578 22.5977679,18.71875 20,18.71875 C17.4022321,18.71875 15.2857143,16.6142578 15.2857143,14.03125 C15.2857143,11.4482422 17.4022321,9.34375 20,9.34375 Z" id="path-3"></path>
    </defs>
    <g id="Main" stroke="none" stroke-width="1" fill="none" fill-rule="evenodd">
        <g id="conversation" transform="translate(-577, -80)">
            <g id="ph-profile" transform="translate(577, 80)">
                <mask id="mask-2" fill="white">
                    <use xlink:href="#path-1"></use>
                </mask>
                <use id="Rectangle" fill="#EFEFEF" xlink:href="#path-1"></use>
                <mask id="mask-4" fill="white">
                    <use xlink:href="#path-3"></use>
                </mask>
                <use id="user" fill="#003A5D" fill-rule="nonzero" xlink:href="#path-3"></use>
            </g>
        </g>
    </g>
</svg>