<?xml version="1.0" encoding="UTF-8"?>
<svg width="271px" height="288px" viewBox="0 0 271 288" version="1.1" xmlns="http://www.w3.org/2000/svg" xmlns:xlink="http://www.w3.org/1999/xlink">
    <title>policy-wonk-cow</title>
    <defs>
        <path d="M63.526497,5.47401371 C36.6361161,-6.52686074 15.4610164,1.2047219 0.00119789066,28.6687616 C-0.0940027389,29.0064553 11.0996121,39.2581274 25.5682558,42.2526513 C35.0007885,44.2048691 45.959869,42.5466809 55.6270524,34.8570398 C71.9575588,21.8671412 74.590707,12.0727991 63.526497,5.47401371 Z" id="path-1"></path>
        <path d="M63.525904,5.47401371 C36.6355231,-6.52686074 15.4602218,1.2047219 0,28.6687616 C-0.104757844,29.0425022 13.56783,42.1123803 30.1924491,43.7345496 C38.3817794,44.5336344 47.5421411,41.2876105 55.6264594,34.8570398 C71.9569658,21.8671412 74.590114,12.0727991 63.525904,5.47401371 Z" id="path-3"></path>
        <path d="M30.4835223,0 C-0.10567538,15.4955033 -7.67344351,36.412707 7.78021791,62.7516111 C30.96071,102.259967 130.062763,101.696548 130.062763,101.696548 C130.062763,101.696548 139.314256,89.4768174 157.817242,65.037357 L166.892605,52.7006132 C163.816329,34.6460815 160.536268,22.8683592 157.052421,17.3674463 C152.13212,9.59840528 144.517644,6.04669327 136.96071,3.61453218 C128.078254,0.75575835 108.577308,12.7516375 83.2252259,12.7516375 C73.2596578,12.7516375 55.67909,8.50109165 30.4835223,0 Z" id="path-5"></path>
        <linearGradient x1="26.1819078%" y1="26.6401323%" x2="55.7377009%" y2="74.1645531%" id="linearGradient-7">
            <stop stop-color="#EFF6F9" offset="0%"></stop>
            <stop stop-color="#F7F8F8" offset="100%"></stop>
        </linearGradient>
        <linearGradient x1="50%" y1="0%" x2="50%" y2="100%" id="linearGradient-8">
            <stop stop-color="#F6F9FD" offset="0%"></stop>
            <stop stop-color="#FBFBF9" offset="100%"></stop>
        </linearGradient>
        <path d="M78.411144,0.0106191228 C64.2132073,3.57602104 57.6637231,8.42942624 58.7626915,14.5708347 C58.7605201,15.1061511 44.4505233,13.5602438 32.3768407,24.462545 C32.0683043,24.9067167 12.5207976,23.6157264 21.7709734,0.0106191228 C21.8566016,-0.195763701 -3.88937761,6.73576772 11.832585,44.7564701 C11.9499227,45.1421167 -17.5352892,104.438992 16.1466282,129.171234 C38.6012398,145.659395 66.2216515,149.166543 99.0078633,139.692678 C111.53891,137.215802 120.902698,133.155218 127.099228,127.510928 C136.394023,119.044492 146.732299,95.2691711 127.099228,42.8316072 C126.866628,42.5919652 143.989473,15.6512071 117.804433,0.0106191228 C117.691901,-0.4534708 127.769629,14.3834181 109.2919,26.9832733 C108.886159,27.3678391 107.052462,23.9323139 103.030163,21.7460547 C99.0078633,19.5597954 100.04383,29.5040015 87.5191536,26.9832733 C74.9944774,24.462545 95.8955602,26.7809908 94.383251,4.90210439 C94.4927857,3.48874289 83.5778107,14.5708347 74.9944774,14.5708347 C69.2722551,14.5708347 70.411144,9.71742951 78.411144,0.0106191228 Z" id="path-9"></path>
        <linearGradient x1="38.0592373%" y1="21.9397941%" x2="50%" y2="95.2651552%" id="linearGradient-11">
            <stop stop-color="#FFD24C" offset="0%"></stop>
            <stop stop-color="#FFC519" offset="100%"></stop>
        </linearGradient>
        <linearGradient x1="59.1090745%" y1="9.35425714%" x2="42.4420205%" y2="100%" id="linearGradient-12">
            <stop stop-color="#FFD24C" offset="0%"></stop>
            <stop stop-color="#FFC519" offset="100%"></stop>
        </linearGradient>
        <polygon id="path-13" points="0 0 11.2529327 2.40806988 69.2549492 28.3461007 69.2549492 80.4563661 14.1960289 58.6385306 2.3574656 10.6121829"></polygon>
        <polygon id="path-15" points="0 0 69.2549492 28.3461007 69.2549492 80.4563661 14.1960289 58.6385306"></polygon>
        <linearGradient x1="21.101596%" y1="0%" x2="66.5881208%" y2="100%" id="linearGradient-17">
            <stop stop-color="#F9FBFE" offset="0%"></stop>
            <stop stop-color="#B3BDC4" offset="99.9189897%"></stop>
        </linearGradient>
        <linearGradient x1="46.5032358%" y1="9.28805562%" x2="46.5032358%" y2="95.7260489%" id="linearGradient-18">
            <stop stop-color="#FFD24C" offset="0%"></stop>
            <stop stop-color="#FFC519" offset="100%"></stop>
        </linearGradient>
        <path d="M24.0702846,8.77603149 C19.2857794,2.92534383 13.4674709,0 6.61535911,0 C-0.236752708,0 -1.76586139,4.88965352 2.02803306,14.6689606 C-1.58082314,23.720988 -0.0517144598,28.7529043 6.61535911,29.7647095 C13.2824327,30.7765147 19.1007412,29.22052 24.0702846,25.0967255 L24.0702846,8.77603149 Z" id="path-19"></path>
        <path d="M24.0702846,8.77603149 C19.2857794,2.92534383 13.4674709,0 6.61535911,0 C-0.236752708,0 -1.76586139,4.88965352 2.02803306,14.6689606 C-1.58082314,23.720988 -0.0517144598,28.7529043 6.61535911,29.7647095 C13.2824327,30.7765147 19.1007412,29.22052 24.0702846,25.0967255 L24.0702846,8.77603149 Z" id="path-21"></path>
        <linearGradient x1="46.5032358%" y1="9.28805562%" x2="46.5032358%" y2="95.7260489%" id="linearGradient-23">
            <stop stop-color="#FFD24C" offset="0%"></stop>
            <stop stop-color="#FFC519" offset="100%"></stop>
        </linearGradient>
        <linearGradient x1="46.5032358%" y1="9.28805562%" x2="46.5032358%" y2="95.7260489%" id="linearGradient-24">
            <stop stop-color="#FFD24C" offset="0%"></stop>
            <stop stop-color="#FFC519" offset="100%"></stop>
        </linearGradient>
    </defs>
    <g id="policy-wonk-cow" stroke="none" stroke-width="1" fill="none" fill-rule="evenodd">
        <g transform="translate(12.0206, 20.6507)">
            <g id="ears" transform="translate(0, 42.8681)">
                <g id="ear-r" transform="translate(209.1147, 21.501) scale(-1, 1) translate(-209.1147, -21.501)translate(174, 0)">
                    <g id="Group-3">
                        <mask id="mask-2" fill="white">
                            <use xlink:href="#path-1"></use>
                        </mask>
                        <use id="ear-inner" fill="#033266" xlink:href="#path-1"></use>
                        <path d="M57.7054368,13.7153467 C53.7443844,12.0666812 29.5894106,8.32189885 14.794716,23.5130915 C14.3897172,24.0038523 26.9896699,28.995529 36.0360947,23.5130915 C36.0228959,23.7998919 30.4290162,27.8876719 30.4290162,30.0203852 C30.4290162,31.2552036 43.8156743,28.3532662 51.8642503,23.5130915 C57.7167506,19.9935715 59.3730818,14.4094524 57.7054368,13.7153467 Z" id="Path-26" fill="#01152B" mask="url(#mask-2)"></path>
                        <path d="M2.41433723,29.4041056 C19.6668956,7.38982716 39.0646236,0.0517343559 60.6075211,7.38982716 C82.1504187,14.72792 82.7744675,7.64853293 62.4796677,-13.8483339 C42.8246283,-13.1445477 32.9971085,-12.7926546 32.9971085,-12.7926546 C32.9971085,-12.7926546 25.6776582,-8.5284364 11.0387574,-8.8817842e-15 C-0.78604627,11.6985216 -6.69844811,17.5477823 -6.69844811,17.5477823 C-6.69844811,17.5477823 -7.04105624,22.9365483 -7.72627251,33.7140802 C-5.74975578,35.109288 -4.76149742,35.8068918 -4.76149742,35.8068918 C-4.76149742,35.8068918 -2.36955254,33.6726297 2.41433723,29.4041056 Z" id="Path-27" fill="#B3C1D1" mask="url(#mask-2)"></path>
                    </g>
                    <path d="M63.526497,5.47401371 C36.6361161,-6.52686074 15.4608196,1.2047219 0.00060739272,28.6687616 C-0.104770414,29.0446502 14.0662241,40.5704755 30.8162484,42.088277 C38.9244845,42.8230039 47.6370564,41.212583 55.6270524,34.8570398 C71.9575588,21.8671412 74.590707,12.0727991 63.526497,5.47401371 Z" id="ear-border" stroke="#0B0A08" stroke-width="5"></path>
                </g>
                <g id="ear-l">
                    <g id="Group-3" transform="translate(0.0006, 0)">
                        <mask id="mask-4" fill="white">
                            <use xlink:href="#path-3"></use>
                        </mask>
                        <use id="ear-inner" fill="#033266" xlink:href="#path-3"></use>
                        <path d="M57.7048438,13.7153467 C53.7437914,12.0666812 29.5888176,8.32189885 14.794123,23.5130915 C14.3891242,24.0038523 26.9890769,28.995529 36.0355018,23.5130915 C36.0223029,23.7998919 30.4284232,27.8876719 30.4284232,30.0203852 C30.4284232,31.2552036 43.8150813,28.3532662 51.8636573,23.5130915 C57.7161576,19.9935715 59.3724888,14.4094524 57.7048438,13.7153467 Z" id="Path-26" fill="#01152B" mask="url(#mask-4)"></path>
                        <path d="M2.395,29.4802205 C19.6600546,7.41519881 39.0640306,0.0517343559 60.6069281,7.38982716 C82.1498257,14.72792 82.7738746,7.64853293 62.4790748,-13.8483339 C42.8240353,-13.1445477 32.9965155,-12.7926546 32.9965155,-12.7926546 C32.9965155,-12.7926546 25.6770652,-8.5284364 11.0381644,-8.8817842e-15 C-0.786639257,11.6985216 -6.69904109,17.5477823 -6.69904109,17.5477823 C-6.69904109,17.5477823 -7.04164923,22.9365483 -7.72686549,33.7140802 C-5.75034877,35.109288 -4.76209041,35.8068918 -4.76209041,35.8068918 C-4.76209041,35.8068918 -2.37639361,33.6980014 2.395,29.4802205 Z" id="Path-27" fill="#B3C1D1" mask="url(#mask-4)"></path>
                    </g>
                    <path d="M63.5264757,5.47401371 C36.6360948,-6.52686074 15.4609951,1.2047219 0.00117657858,28.6687616 C-0.156088131,29.2266077 31.1312715,54.3418879 55.6270311,34.8570398 C71.9575375,21.8671412 74.5906856,12.0727991 63.5264757,5.47401371 Z" id="ear-border" stroke="#0B0A08" stroke-width="5"></path>
                </g>
            </g>
            <g id="shirt" transform="translate(38.7542, 127.5474)">
                <g id="shirt-inner">
                    <mask id="mask-6" fill="white">
                        <use xlink:href="#path-5"></use>
                    </mask>
                    <use fill="#1F262E" xlink:href="#path-5"></use>
                    <path d="M17.6668254,4.45184835 C24.53485,35.6128187 33.9243185,53.7785368 45.8352309,58.9490027 C68.1306207,68.6273169 80.9090922,77.9444208 84.1706452,86.9003143 C89.7390046,66.3019816 100.974621,55.4286143 117.877493,54.2802124 C130.602079,53.4156885 140.840363,43.1301525 145.222487,22.6162344 C146.181773,18.1255555 146.609307,10.1956524 146.505087,-1.17347494 L146.505087,-0.255508423 L30.96071,0.956215995 L23.1887138,3.35037612 L17.6668254,4.45184835 Z" id="Path-24" fill="url(#linearGradient-7)" mask="url(#mask-6)"></path>
                    <path d="M60.53384,19.0109202 C60.53384,19.0109202 68.0976353,26.2529474 83.2252259,40.7370017 L102.642627,32.8018646 L108.197333,8.46643575 L62.0241151,10.582372 C61.0305983,16.2014041 60.53384,19.0109202 60.53384,19.0109202 Z" id="Path" fill="#A8B0C8" mask="url(#mask-6)"></path>
                    <path d="M21.7218486,23.0435638 L16.1490744,9.46643575 L32.2471172,2.66030595 L49.7837026,7.80186462 L66.5881847,23.0435638 C64.3472544,23.9230716 62.3291395,23.9230716 60.53384,23.0435638 C47.3590357,16.5892967 35.8035478,9.40124507 30.96071,10.318985 C25.1279892,11.4243123 22.0483688,15.6658386 21.7218486,23.0435638 Z" id="Path-2" fill="#A8B0C8" mask="url(#mask-6)"></path>
                    <path d="M125.190108,10.9439138 C129.600176,9.41394193 133.707528,9.16650154 137.512162,10.2015926 C141.316797,11.2366836 144.314439,13.4171125 146.505087,16.7428792 L147.371965,8.80186462 L135.5857,3.66030595 L127.145697,5.61453218 L125.190108,10.9439138 Z" id="Path-25" fill="#A8B0C8" mask="url(#mask-6)"></path>
                    <path d="M17.6668254,4.45184835 C24.53485,35.6128187 33.9243185,53.7785368 45.8352309,58.9490027 C68.1306207,68.6273169 80.9090922,77.9444208 84.1706452,86.9003143 C89.7390046,66.3019816 100.974621,55.4286143 117.877493,54.2802124 C134.780366,53.1318105 144.322897,34.6472481 146.505087,-1.17347494 L146.505087,-0.255508423 L7.68818735,-5.12624766 L14.8990829,2.36866299 L17.6668254,4.45184835 Z" id="shirt-border" stroke="#0B0A08" stroke-width="4" mask="url(#mask-6)"></path>
                    <circle id="Oval" fill="#171717" mask="url(#mask-6)" cx="83.2252259" cy="58.8018646" r="3"></circle>
                </g>
                <path d="M30.96071,3.61453218 C21.6739932,5.56875841 -15.4002742,23.243255 7.78021791,62.7516111 C30.96071,102.259967 130.062763,101.69721 130.062763,101.69721 C130.062763,101.69721 140.939761,84.1535734 162.693756,49.0662994 C161.63521,34.8798355 159.438104,25.0580141 156.10244,19.6008353 C151.117963,11.446184 144.737387,6.11741633 136.96071,3.61453218 C128.078254,0.75575835 107.702443,22.0435638 82.3503601,22.0435638 C67.4020079,22.0435638 40.2474269,1.66030595 30.96071,3.61453218 Z" id="shirt-border" stroke="#0B0A08" stroke-width="6"></path>
            </g>
            <g id="head" transform="translate(52.5682, 0)">
                <g id="head-inner" transform="translate(0, 0.0365)">
                    <mask id="mask-10" fill="white">
                        <use xlink:href="#path-9"></use>
                    </mask>
                    <use fill="url(#linearGradient-8)" xlink:href="#path-9"></use>
                    <path d="M86.4561219,5.5418702 C84.0863583,10.2002368 80.280038,14.4862449 75.0371612,18.3998945 C74.7456873,18.3455418 78.1103385,21.4923719 82.9968386,18.3998945 C83.058313,18.6180333 79.5098607,23.0047031 67.9704908,28.0552011 C67.6254452,28.3206503 75.22541,33.5319824 84.5750522,30.7935917 C90.8081469,28.967998 93.9246943,26.4140746 93.9246943,23.1318216 C93.9246943,12.9071091 93.9246943,7.79475284 93.9246943,7.79475284 C93.9246943,7.79475284 91.4351702,7.04379196 86.4561219,5.5418702 Z" id="Path-32" fill="#D8D8D8" mask="url(#mask-10)"></path>
                    <path d="M98.9985311,19.2629383 C86.7901215,27.9736901 80.6859167,36.6463395 80.6859167,45.2808864 C80.6859167,53.9154333 83.7380191,59.9263993 89.8422239,63.3137844 C80.8624952,70.0288519 78.1609736,77.7864304 81.7376592,86.58652 C87.1026876,99.7866542 105.534878,115.545771 127.651317,102.915583 C149.767757,90.2853954 152.976497,80.0769909 152.976497,80.0769909 C152.976497,80.0769909 150.534888,66.7039967 145.651668,39.9580085 L98.9985311,19.2629383 Z" id="Path-31" fill="#033266" mask="url(#mask-10)"></path>
                    <g id="horn" mask="url(#mask-10)">
                        <g transform="translate(104.1067, -15.2362)">
                            <path d="M5.18519915,42.2194767 L22.9925274,58.0678106 L26.6736511,61.4987595 C39.89588,33.6245661 46.5069944,19.6874695 46.5069944,19.6874695 C46.5069944,19.6874695 38.074416,13.1249797 21.209259,0 L0,0 L5.18519915,23.6236343 L5.18519915,42.2194767 Z" id="Path-28" fill="url(#linearGradient-11)"></path>
                            <path d="M9.51681519,46.0530243 C15.4772099,39.7580624 18.8613237,34.3265705 19.6691563,29.7585485 C20.476989,25.1905266 18.3093527,19.389134 13.1662475,12.3543707 L7.62485612,25.85548 L6.14810724,37.1905027 L5.63023158,42.960774 L9.51681519,46.0530243 Z" id="Path-29" fill="#FFECB2"></path>
                            <path d="M23.4968898,26.2633475 C24.4749339,32.985028 24.3461499,38.4912295 23.1105377,42.7819519 C21.8749256,47.0726743 19.5663186,50.4109891 16.1847168,52.7968964 L23.1105377,58.8943008 L29.3775635,52.7968964 C30.3318964,36.7487627 30.8090629,28.7246958 30.8090629,28.7246958 C30.8090629,28.7246958 28.3716719,27.9042464 23.4968898,26.2633475 Z" id="Path-30" fill="#CF9B02"></path>
                        </g>
                    </g>
                    <path d="M32.3768407,24.462545 C27.6195336,31.452197 20.7714484,38.2168387 11.832585,44.7564701 L-2.704365,17.9556987 C-0.215919041,6.74835468 1.14299233,1.14468265 1.3723691,1.14468265 C1.60174587,1.14468265 7.19861962,-1.59051028 18.1629903,-7.06089615 L32.7554815,-4.61525559 C27.3707799,7.05118792 24.678429,12.8844097 24.678429,12.8844097 C24.678429,12.8844097 26.0702326,15.172296 28.8538396,19.7480686 C35.9598141,15.9014009 37.1341478,17.4728931 32.3768407,24.462545 Z" id="Path-33" fill="url(#linearGradient-12)" mask="url(#mask-10)"></path>
                    <path d="M32.264433,6.34608505 C23.9087764,-1.27456969 18.1891777,0.519465723 15.1056369,11.7281913 C12.5980966,23.1175538 17.7925862,28.186288 30.6891058,26.9343937 L29.9195465,20.7829192 L32.264433,6.34608505 Z" id="Path-34" fill="#FFECB2" mask="url(#mask-10)"></path>
                    <path d="M8.92353321,11.637388 C8.23682827,17.548687 8.23682827,21.9771925 8.92353321,24.9229043 C10.210223,30.4423306 14.0635997,37.1435852 16.4850531,40.0365262 C16.4850531,40.0365262 14.2163257,42.3447023 9.67887093,46.9610546 C1.21849037,33.0580547 -3.0116999,26.1065548 -3.0116999,26.1065548 C-3.0116999,26.1065548 -2.44262464,21.3392538 -1.3044741,11.804652 L3.42850472,8.18092228 L8.92353321,11.637388 Z" id="Path-36" fill="#CF9B02" mask="url(#mask-10)"></path>
                    <path d="M117.097579,34.5550614 C117.097579,35.151609 121.827179,39.1803696 124.855877,45.996062 C126.875008,50.539857 129.249474,53.589479 131.979275,55.1449281 L145.500164,37.3982341 L128.360198,43.8316072 C120.851785,36.8046886 117.097579,33.7125067 117.097579,34.5550614 Z" id="Path-35" fill="#0B0A08" mask="url(#mask-10)"></path>
                    <path d="M14.3203924,47.6447094 C18.6586159,39.0465877 21.6148116,37.2960342 21.4987575,36.779901 C21.2892441,35.8481217 17.1482611,39.0090068 9.07580849,46.262556 L1.3723691,75.332752 C7.81730804,61.2087231 12.1333158,51.9793755 14.3203924,47.6447094 Z" id="Path-37" fill="#0B0A08" mask="url(#mask-10)"></path>
                    <circle id="Oval" fill="#033266" mask="url(#mask-10)" cx="-3.58885597" cy="116.312793" r="26"></circle>
                </g>
                <path d="M78.411144,0.0470895336 C62.3341076,3.61249145 54.8450736,8.46589665 55.944042,14.6073051 C55.9418705,15.1426215 44.4505233,13.5967142 32.3768407,24.4990154 C32.0683043,24.9431872 12.5207976,23.6521968 21.7709734,0.0470895336 C21.8566016,-0.15929329 -3.88937761,6.77223813 11.832585,44.7929405 C11.9499227,45.1785871 -17.5352892,104.475463 16.1466282,129.207704 C38.6012398,145.695865 66.2216515,149.203014 99.0078633,139.729149 C111.53891,137.252272 120.902698,133.191689 127.099228,127.547398 C136.394023,119.080963 146.732299,95.8907443 127.099228,43.4531804 C125.295375,41.3906804 143.989473,15.6876775 117.804433,0.0470895336 C115.385227,-0.961117977 127.769629,14.4198885 109.2919,27.0197437 C108.886159,27.4043095 107.052462,23.9687843 103.030163,21.7825251 C99.0078633,19.5962658 100.04383,29.5404719 87.5191536,27.0197437 C74.9944774,24.4990154 95.8955602,26.8174612 94.383251,4.9385748 C94.4927857,3.52521331 83.5778107,14.6073051 74.9944774,14.6073051 C69.2722551,14.6073051 70.411144,9.75389993 78.411144,0.0470895336 Z" id="head-outer" stroke="#0B0A08" stroke-width="5" stroke-linecap="round" stroke-linejoin="round"></path>
            </g>
            <g id="bookhands" transform="translate(31.9794, 158.6086)">
                <g id="book">
                    <g id="paper-right" transform="translate(134.8325, 24.8878) scale(-1, 1) translate(-134.8325, -24.8878)translate(90, 0)">
                        <path d="M0,13.1830804 L4.38944033,12.3711681 L4.38944033,6.88433456 L8.88876703,8.43969917 L9.21434382,3.50213051 L15.0703962,6.64178848 L17.4865797,0 L73.4852605,26.856696 C82.140639,30.8243198 86.8547104,36.5124116 87.6274746,43.9209714 C88.4002389,51.3295311 72.879078,51.7069766 41.0639921,45.0533077 L9.83938768,22.9615503 L0,13.1830804 Z" id="left-page-inner" fill="#EBEFF4"></path>
                        <path d="M8.46246699,7.1366787 C46.0713158,23.707498 69.1118734,34.0245173 77.5841399,38.0877366 C85.8062564,42.0309863 87.6555158,44.2700745 87.8919905,44.6581245" id="Path-23" stroke="#BFC5CF" stroke-width="2"></path>
                        <path d="M15.0730014,5.16074791 C47.9809053,19.2060192 68.1463003,28.2652035 75.5691865,32.3383007 C86.7035159,38.4479465 87.339813,42.6873837 89.665018,47.802441" id="Path-22" stroke="#BFC5CF" stroke-width="2" stroke-linejoin="round"></path>
                        <path d="M4.38944033,12.3711681 L4.38944033,6.88433456 L8.88876703,8.43969917 L9.21434382,3.50213051 L15.0703962,6.64178848 L17.4865797,0 L73.4852605,26.856696 C82.140639,30.8243198 86.8547104,36.5124116 87.6274746,43.9209714 C88.4002389,51.3295311 72.879078,51.7069766 41.0639921,45.0533077 L9.83938768,22.9615503 L4.38944033,12.3711681 Z" id="left-page-border" stroke="#0B0A08" stroke-width="3" stroke-linejoin="round"></path>
                    </g>
                    <g id="paper-left">
                        <path d="M0,13.1830804 L4.38944033,12.3711681 L4.38944033,6.88433456 L8.88876703,8.43969917 L9.21434382,3.50213051 L15.0703962,6.64178848 L17.4865797,0 L73.4852605,26.856696 C82.140639,30.8243198 86.8547104,36.5124116 87.6274746,43.9209714 C88.4002389,51.3295311 72.879078,51.7069766 41.0639921,45.0533077 L9.83938768,22.9615503 L0,13.1830804 Z" id="left-page-inner" fill="#EBEFF4"></path>
                        <path d="M8.46246699,7.1366787 C46.0713158,23.707498 69.1118734,34.0245173 77.5841399,38.0877366 C85.8062564,42.0309863 87.6555158,44.2700745 87.8919905,44.6581245" id="Path-23" stroke="#BFC5CF" stroke-width="2"></path>
                        <path d="M14.9533234,5.0816288 C47.9410126,19.1796462 68.1463003,28.2652035 75.5691865,32.3383007 C86.7035159,38.4479465 87.339813,42.6873837 89.665018,47.802441" id="Path-22" stroke="#BFC5CF" stroke-width="2" stroke-linejoin="round"></path>
                        <path d="M4.38944033,15.4287828 L4.38944033,12.3711681 L4.38944033,6.88433456 L8.88876703,8.43969917 L9.21434382,3.50213051 L15.0703962,6.64178848 L17.4865797,0 L73.4852605,26.856696 C82.140639,30.8243198 86.8547104,36.5124116 87.6274746,43.9209714 C88.4002389,51.3295311 72.879078,51.7069766 41.0639921,45.0533077 L9.83938768,22.9615503 L4.38944033,15.4287828 Z" id="left-page-border" stroke="#0B0A08" stroke-width="3" stroke-linejoin="round"></path>
                    </g>
                    <g id="book-right" transform="translate(142.7355, 53.4113) scale(-1, 1) translate(-142.7355, -53.4113)translate(108.108, 13.1831)">
                        <g id="Group-2" transform="translate(0, 0)">
                            <mask id="mask-14" fill="white">
                                <use xlink:href="#path-13"></use>
                            </mask>
                            <use id="bookside-inner" fill="#EBF5F7" xlink:href="#path-13"></use>
                            <polygon id="bookside-inner" fill="#1D4776" mask="url(#mask-14)" points="6.6078196 8.45636607 69.294176 33.82315 70.6078196 60.2378956 69.294176 80.4563661 19.4574041 60.9316941"></polygon>
                        </g>
                        <polygon id="bookside-border" stroke="#0B0A08" stroke-width="5" stroke-linejoin="round" points="0 4.54747351e-13 69.2549492 28.3461007 69.2549492 80.4563661 54.0715086 74.4397241 14.1960289 58.6385306"></polygon>
                    </g>
                    <g id="book-left" transform="translate(2.108, 13.1831)">
                        <g id="Group-2" transform="translate(0, 0)">
                            <mask id="mask-16" fill="white">
                                <use xlink:href="#path-15"></use>
                            </mask>
                            <use id="bookside-inner" fill="#EBF5F7" xlink:href="#path-15"></use>
                            <polygon id="bookside-inner" fill="#1D4776" mask="url(#mask-16)" points="6.25494922 7.45636607 69.2549492 33.1754664 69.2549492 80.4563661 19.1688251 60.6605181"></polygon>
                        </g>
                        <polygon id="bookside-border" stroke="#0B0A08" stroke-width="5" stroke-linejoin="round" points="0 4.54747351e-13 69.2549492 28.3461007 69.2549492 80.4563661 14.1960289 58.6385306"></polygon>
                    </g>
                    <g id="book-binding" transform="translate(72, 40)">
                        <path d="M0,51.0974984 C6.13745304,53.5197478 12.054771,54.7308725 17.7519538,54.7308725 C23.4491366,54.7308725 29.1984853,53.5197478 35,51.0974984 L35,0 C29.4148624,2.15838617 23.6655136,3.23757926 17.7519538,3.23757926 C11.8383939,3.23757926 5.92107599,2.15838617 0,0 L0,51.0974984 Z" id="book-binding-inner" fill="#EBF5F7"></path>
                        <path d="M0.137198643,54.6191838 C6.18318592,57.5397279 12.054771,59 17.7519538,59 C23.4491366,59 29.1984853,57.5397279 35,54.6191838 L35,6.15639901 C29.4148624,8.08956677 23.6655136,9.05615065 17.7519538,9.05615065 C11.8383939,9.05615065 5.92107599,8.08956677 0,6.15639901 L0.137198643,54.6191838 Z" id="book-binding-inner" fill="#1D4776"></path>
                        <path d="M1.41,26.1696466 C6.86051531,28.2311644 12.3082833,29.2584481 17.7519538,29.2584481 C23.1641286,29.2584481 28.4436967,28.2435163 33.59,26.2105253 L33.59,39.0266635 C28.2651741,41.3325075 22.9866959,42.4918283 17.7519538,42.4918283 C12.4967811,42.4918283 7.05049886,41.3246274 1.41,39.0066756 Z" id="book-binding-inner" stroke="#FFE599" stroke-width="2.82" fill="#FFC519"></path>
                        <path d="M0,54.8233661 C6.13745304,57.6077887 12.054771,59 17.7519538,59 C23.4491366,59 29.1984853,57.6944049 35,55.0832148 L35,2.14557925e-13 C29.4148624,2.15838617 23.6655136,3.23757926 17.7519538,3.23757926 C11.8383939,3.23757926 5.92107599,2.15838617 0,2.14557925e-13 L0,54.8233661 Z" id="book-binding-border" stroke="#0B0A08" stroke-width="2.82" stroke-linejoin="round"></path>
                    </g>
                </g>
                <g id="hands" transform="translate(5.4165, 36.7495)" fill="url(#linearGradient-17)" stroke="#0B0A08" stroke-width="4">
                    <path d="M0.652716078,-1.98158904 C1.36479428,-2.06654683 2.41853238,-1.71205717 3.76095193,-0.791633319 C4.18922561,-0.497989417 4.67764571,-0.159106537 5.23209458,0.138175352 C5.94405843,0.519912908 6.8845207,0.899537188 7.95104605,1.3360669 C13.1440205,3.46155566 20.6971155,6.79134297 22.8846772,15.0970553 C23.8932908,18.9265491 23.4472628,22.0577239 21.7811533,24.5447372 C20.1816092,26.9323879 17.3633087,28.7887588 13.1729346,29.931011 C10.7445063,30.3310334 8.78102502,30.1955632 7.06656108,29.622742 C5.2716651,29.0230476 3.73083088,27.9469568 2.45710707,26.3752539 C0.226730649,23.6230958 -1.19208843,19.2064411 -1.59219787,13.0229976 C-2.04541391,6.01882463 -2.10209757,2.43385585 -1.79760391,0.787713817 C-1.66657849,0.0793691932 -1.45907804,-0.409981 -1.24584513,-0.749429055 C-0.726018669,-1.57694712 -0.0616218368,-1.89636163 0.652716078,-1.98158904 Z" id="left-hand"></path>
                    <path d="M150.704304,1.9007968 C154.608393,3.99407378 164.878233,6.15363319 167.367918,15.6064443 C169.027708,21.9083184 166.259812,26.0399756 159.064231,28.0014159 C151.630638,29.1900828 147.549532,24.154229 146.820912,12.8938545 C145.727981,-3.9967073 146.800214,-0.192480175 150.704304,1.9007968 Z" id="hand-border" transform="translate(157.1259, 14.0858) scale(-1, 1) translate(-157.1259, -14.0858)"></path>
                </g>
            </g>
            <g id="bowtie" transform="translate(94.0401, 151.2525)">
                <g id="bowtie-left">
                    <path d="M24.0702846,8.77603149 C19.2857794,2.92534383 13.4674709,0 6.61535911,0 C-0.236752708,0 -1.76586139,4.88965352 2.02803306,14.6689606 C-1.58082314,23.720988 -0.0517144598,28.7529043 6.61535911,29.7647095 C13.2824327,30.7765147 19.1007412,29.22052 24.0702846,25.0967255 L24.0702846,8.77603149 Z" id="bowtie-border" stroke="#0B0A08" stroke-width="5"></path>
                    <g id="bowtie-inner" transform="translate(0, 0)">
                        <mask id="mask-20" fill="white">
                            <use xlink:href="#path-19"></use>
                        </mask>
                        <use id="bowtie-inside" fill="url(#linearGradient-18)" xlink:href="#path-19"></use>
                        <path d="M24.0702846,8.29251905 C17.0274616,4.33951613 11.8535271,2.36301467 8.54848118,2.36301467 C5.24343524,2.36301467 1.90535969,4.33951613 -1.46574546,8.29251905 C-0.48858182,-2.39381515 -1.33226763e-15,-7.73698226 1.11022302e-15,-7.73698226 C4.6629367e-15,-7.73698226 14.7971216,-4.42159247 14.7971216,-4.42159247 C14.7971216,-4.42159247 22.5996523,2.81161177 22.5996523,2.81161177 C22.5996523,2.81161177 23.0898631,4.63858087 24.0702846,8.29251905 Z" id="Path-13" fill="#FFECB2" mask="url(#mask-20)"></path>
                        <path d="M-9.09494702e-13,23.7848104 C-9.09494702e-13,28.8247342 -9.09494702e-13,31.344696 -9.09494702e-13,31.344696 C-9.09494702e-13,31.344696 4.01171411,32.422365 12.0351423,34.5777028 C23.9712547,32.8922713 29.9393108,32.0495555 29.9393108,32.0495555 C29.9393108,32.0495555 28.4838436,29.6258803 25.5729092,24.7785301 C19.016344,27.0330274 13.7721059,28.059406 9.84019482,27.857666 C5.90828377,27.655926 2.62821883,26.2983075 -9.09494702e-13,23.7848104 Z" id="Path-20" fill="#CF9B02" mask="url(#mask-20)"></path>
                    </g>
                </g>
                <g id="bowtie-left" transform="translate(44.0351, 15.0319) scale(-1, 1) translate(-44.0351, -15.0319)translate(32, 0)">
                    <path d="M24.0702846,8.77603149 C19.2857794,2.92534383 13.4674709,0 6.61535911,0 C-0.236752708,0 -1.76586139,4.88965352 2.02803306,14.6689606 C-1.58082314,23.720988 -0.0517144598,28.7529043 6.61535911,29.7647095 C13.2824327,30.7765147 19.1007412,29.22052 24.0702846,25.0967255 L24.0702846,8.77603149 Z" id="bowtie-border" stroke="#0B0A08" stroke-width="5"></path>
                    <g id="bowtie-inner" transform="translate(0, 0)">
                        <mask id="mask-22" fill="white">
                            <use xlink:href="#path-21"></use>
                        </mask>
                        <use id="bowtie-inside" fill="url(#linearGradient-18)" xlink:href="#path-21"></use>
                        <path d="M24.0702846,8.29251905 C17.0274616,4.33951613 11.8535271,2.36301467 8.54848118,2.36301467 C5.24343524,2.36301467 1.90535969,4.33951613 -1.46574546,8.29251905 C-0.48858182,-2.39381515 -1.33226763e-15,-7.73698226 1.11022302e-15,-7.73698226 C4.6629367e-15,-7.73698226 14.7971216,-4.42159247 14.7971216,-4.42159247 C14.7971216,-4.42159247 22.5996523,2.81161177 22.5996523,2.81161177 C22.5996523,2.81161177 23.0898631,4.63858087 24.0702846,8.29251905 Z" id="Path-13" fill="#FFECB2" mask="url(#mask-22)"></path>
                        <path d="M-9.09494702e-13,23.7848104 C-9.09494702e-13,28.8247342 -9.09494702e-13,31.344696 -9.09494702e-13,31.344696 C-9.09494702e-13,31.344696 4.01171411,32.422365 12.0351423,34.5777028 C23.9712547,32.8922713 29.9393108,32.0495555 29.9393108,32.0495555 C29.9393108,32.0495555 28.4838436,29.6258803 25.5729092,24.7785301 C19.016344,27.0330274 13.7721059,28.059406 9.84019482,27.857666 C5.90828377,27.655926 2.62821883,26.2983075 -9.09494702e-13,23.7848104 Z" id="Path-20" fill="#CF9B02" mask="url(#mask-22)"></path>
                    </g>
                </g>
                <circle id="bowtie-circle" stroke="#0B0A08" stroke-width="3" fill="url(#linearGradient-23)" cx="27.9393108" cy="16.0967255" r="10.5"></circle>
            </g>
            <g id="nose" transform="translate(81.1566, 102.1581)">
                <path d="M43.8328276,23.9078798 C54.6218337,23.9078798 47.9958138,20.5469393 59.9307808,20.5469393 C71.8657479,20.5469393 84.144335,37.1888094 82.6341421,23.9078798 C81.1239493,10.6269503 75.4671072,1.75746176 63.1826498,0.264000911 C50.8981924,-1.22945993 47.427093,4.10068228 40.9186028,4.10068228 C34.4101126,4.10068228 29.7121756,0.264000911 17.651232,0.264000911 C5.59028837,0.264000911 0,14.0212888 0,23.6062088 C0,33.1911287 10.7470635,25.432828 24.9186028,25.432828 C39.0901421,25.432828 33.0438215,23.9078798 43.8328276,23.9078798 Z" id="nose-white" fill="#FFECB2"></path>
                <path d="M40.9186028,44.1858263 C51.7076089,44.1858263 50.4318411,49.432828 62.3668081,49.432828 C74.3017752,49.432828 84.144335,39.1888094 82.6341421,25.9078798 C81.1239493,12.6269503 64.1922812,17.9796412 51.9078238,16.4861803 C39.6233664,14.9927195 47.888799,18.2806673 41.3803088,18.2806673 C34.8718186,18.2806673 38.2966788,12.5747646 26.2357351,12.5747646 C14.1747915,12.5747646 0,16.0212888 0,25.6062088 C0,35.1911287 3.47969267,49.432828 17.651232,49.432828 C31.8227713,49.432828 30.1295967,44.1858263 40.9186028,44.1858263 Z" id="nose-dark" fill="#CF9B02"></path>
                <path d="M40.9186028,37.4505215 C51.7076089,37.4505215 50.4318411,41.432828 62.3668081,41.432828 C74.3017752,41.432828 84.144335,33.6579454 82.6341421,23.5781444 C81.1239493,13.4983435 75.4671072,6.76668526 63.1826498,5.63319622 C50.8981924,4.49970718 47.427093,8.54511472 40.9186028,8.54511472 C34.4101126,8.54511472 29.7121756,5.63319622 17.651232,5.63319622 C5.59028837,5.63319622 0,16.0745379 0,23.3491857 C0,30.6238336 3.47969267,41.432828 17.651232,41.432828 C31.8227713,41.432828 30.1295967,37.4505215 40.9186028,37.4505215 Z" id="nose-yellow" fill="url(#linearGradient-24)"></path>
                <path d="M40.9186028,42.1858263 C51.7076089,42.1858263 50.4318411,47.432828 62.3668081,47.432828 C74.3017752,47.432828 84.144335,37.1888094 82.6341421,23.9078798 C81.1239493,10.6269503 75.4671072,1.75746176 63.1826498,0.264000911 C50.8981924,-1.22945993 47.427093,4.10068228 40.9186028,4.10068228 C34.4101126,4.10068228 29.7121756,0.264000911 17.651232,0.264000911 C5.59028837,0.264000911 0,14.0212888 0,23.6062088 C0,33.1911287 3.47969267,47.432828 17.651232,47.432828 C31.8227713,47.432828 30.1295967,42.1858263 40.9186028,42.1858263 Z" id="nose-outer" stroke="#0B0A08" stroke-width="5"></path>
                <path d="M17.0380491,22.5722187 C13.626871,19.702748 13.2245318,16.7995362 15.8310314,13.8625833 C19.7407807,9.45715387 30.7873917,17.2822814 27.8529972,23.3614779 C25.8967343,27.4142755 22.2917515,27.1511892 17.0380491,22.5722187 Z" id="nostril1" fill="#06070F"></path>
                <path d="M56.0380491,22.5722187 C52.626871,19.702748 52.2245318,16.7995362 54.8310314,13.8625833 C58.7407807,9.45715387 69.7873917,17.2822814 66.8529972,23.3614779 C64.8967343,27.4142755 61.2917515,27.1511892 56.0380491,22.5722187 Z" id="nostril2" fill="#06070F" transform="translate(60.2402, 19.3953) scale(-1, 1) translate(-60.2402, -19.3953)"></path>
            </g>
            <g id="eyes" transform="translate(81.0284, 64.2716)">
                <path d="M0,11.9368591 C0.904566447,17.4975993 3.7537384,20.2779694 8.54751587,20.2779694 C13.3412933,20.2779694 16.0636597,17.2803472 16.7146149,11.2851028 C16.7146149,3.76170095 13.9288457,0 8.35730743,0 C2.78576914,0 0,3.97895304 0,11.9368591 Z" id="Path-38" fill="#02051A"></path>
                <path d="M66,11.9368591 C66.9045664,17.4975993 69.7537384,20.2779694 74.5475159,20.2779694 C79.3412933,20.2779694 82.0636597,17.2803472 82.7146149,11.2851028 C82.7146149,3.76170095 79.9288457,0 74.3573074,0 C68.7857691,0 66,3.97895304 66,11.9368591 Z" id="Path-38-Copy" fill="#02051A"></path>
                <circle id="Oval" fill="#F8FAFC" cx="7.95103455" cy="6.07765198" r="5"></circle>
                <circle id="Oval-Copy" fill="#F8FAFC" cx="73.9510345" cy="6.07765198" r="5"></circle>
            </g>
            <g id="glasses" transform="translate(56.1651, 54.3493)" stroke="#0B0A08">
                <path d="M50.8737518,19.0903473 C55.4921549,15.8550568 60.1105581,14.2374115 64.7289612,14.2374115 C69.3473643,14.2374115 73.9657674,15.8550568 78.5841705,19.0903473" id="Path-39" stroke-width="6"></path>
                <circle id="Oval-Copy-2" stroke-width="5" cx="100.814243" cy="22" r="22"></circle>
                <circle id="Oval" stroke-width="5" cx="29.8142426" cy="22" r="22"></circle>
                <path d="M121.087273,14.2374115 C123.692752,11.3571722 125.646882,9.64322481 126.949663,9.0955693 C128.252445,8.54791379 129.705447,8.28082956 131.308668,8.29431661" id="Path-40" stroke-width="4"></path>
                <path d="M9.76073507,13.0996602 C7.94949345,11.2173193 6.33132939,10.0872526 4.90624288,9.70946005 C3.48115637,9.3316675 1.84574207,9.3316675 0,9.70946005" id="Path-41" stroke-width="4"></path>
            </g>
        </g>
    </g>
</svg>