<?xml version="1.0" encoding="UTF-8"?>
<svg width="134px" height="25px" viewBox="0 0 134 25" version="1.1" xmlns="http://www.w3.org/2000/svg" xmlns:xlink="http://www.w3.org/1999/xlink">
    <title>ucb_dark</title>
    <defs>
        <path d="M107.163289,0 C107.110262,0.000985903767 107.052385,0.010406762 106.990649,0.027167126 L106.990649,0.027167126 C105.658146,0.358102157 104.376795,0.561746057 103.326292,0.66362278 L103.326292,0.66362278 C102.890613,0.689146733 102.711248,0.892790633 102.711248,1.14748244 L102.711248,1.14748244 C102.711248,1.42758865 102.890613,1.63123255 103.377445,1.70769487 L103.377445,1.70769487 C104.505007,1.91133877 104.633109,2.03873945 104.658685,2.62436628 L104.658685,2.62436628 C104.709948,5.19615103 104.709948,7.61523024 104.709948,9.93232318 L104.709948,9.93232318 C104.709948,12.2240017 104.709948,14.5412042 104.658685,17.0111122 L104.658685,17.0111122 C104.633109,17.5458007 104.47932,17.6476774 103.326292,17.8004925 L103.326292,17.8004925 C102.864926,17.8513213 102.711248,18.1060131 102.711248,18.3861194 L102.711248,18.3861194 C102.711248,18.6407016 102.890613,18.8698695 103.275029,18.8698695 L103.275029,18.8698695 C104.120591,18.8698695 105.017525,18.7935167 106.042452,18.7935167 L106.042452,18.7935167 C107.067488,18.7935167 108.015686,18.8698695 108.861247,18.8698695 L108.861247,18.8698695 C109.245664,18.8698695 109.425028,18.6407016 109.425028,18.3861194 L109.425028,18.3861194 C109.425028,18.1060131 109.245664,17.8513213 108.810095,17.8004925 L108.810095,17.8004925 C107.656956,17.6732014 107.451905,17.5458007 107.451905,17.0111122 L107.451905,17.0111122 C107.400642,14.5412042 107.400642,12.2240017 107.400642,9.93232318 L107.400642,9.93232318 C107.400642,7.8187646 107.400642,5.50167165 107.477591,0.358102157 L107.477591,0.358102157 C107.477591,0.10833987 107.360844,0.00350543562 107.182471,0 L107.182471,0 L107.163289,0 Z M82.9985306,0 C82.9456142,0.000985903767 82.8876265,0.010406762 82.8258906,0.027167126 L82.8258906,0.027167126 C81.4933871,0.358102157 80.2121464,0.561746057 79.1614233,0.66362278 L79.1614233,0.66362278 C78.7258544,0.689146733 78.5464895,0.892790633 78.5464895,1.14748244 L78.5464895,1.14748244 C78.5464895,1.42758865 78.7258544,1.63123255 79.2126861,1.70769487 L79.2126861,1.70769487 C80.3402485,1.91133877 80.4683505,2.03873945 80.494037,2.62436628 L80.494037,2.62436628 C80.5452999,5.19615103 80.5452999,7.61523024 80.5452999,9.93232318 L80.5452999,9.93232318 C80.5452999,12.2240017 80.5452999,14.5412042 80.494037,17.0111122 L80.494037,17.0111122 C80.4683505,17.5458007 80.365935,17.622263 79.2126861,17.8004925 L79.2126861,17.8004925 C78.7515409,17.9023692 78.5977524,18.1060131 78.5977524,18.3861194 L78.5977524,18.3861194 C78.5977524,18.6407016 78.7771172,18.8698695 79.1614233,18.8698695 L79.1614233,18.8698695 C80.007095,18.8698695 80.8527668,18.7935167 81.8778034,18.7935167 L81.8778034,18.7935167 C82.90284,18.7935167 83.774088,18.8698695 84.6196495,18.8698695 L84.6196495,18.8698695 C85.0040658,18.8698695 85.1834307,18.6407016 85.1834307,18.3861194 L85.1834307,18.3861194 C85.1834307,18.1060131 85.0297524,17.9023692 84.5683867,17.8004925 L84.5683867,17.8004925 C83.4153583,17.622263 83.287146,17.5458007 83.287146,17.0111122 L83.287146,17.0111122 C83.2615697,16.196208 83.2615697,15.3814133 83.2615697,14.5921426 L83.2615697,14.5921426 C83.8253509,14.235574 84.3890218,13.8535911 84.9272267,13.4717177 L84.9272267,13.4717177 C86.0035261,15.0758927 87.1054019,16.731006 88.1817014,18.2587187 L88.1817014,18.2587187 C88.5148548,18.7425783 88.6942197,18.8444551 89.2323143,18.8444551 L89.2323143,18.8444551 C90.0010366,18.8444551 90.9492341,18.8189311 92.0511098,18.8444551 L92.0511098,18.8444551 C92.4355261,18.8444551 92.6404673,18.6152872 92.6404673,18.335181 L92.6404673,18.335181 C92.6404673,18.0804892 92.5379416,17.8513213 91.999847,17.8004925 L91.999847,17.8004925 C91.2823875,17.7241397 90.8979712,17.3675712 90.2829272,16.5781909 L90.2829272,16.5781909 C89.2066277,15.126831 88.0791756,13.4717177 87.0284525,11.8675427 L87.0284525,11.8675427 C87.0284525,11.8420188 87.054139,11.8420188 87.0797153,11.8166044 L87.0797153,11.8166044 C89.0529494,10.1105527 90.3597664,8.81189832 91.3336503,7.53876793 L91.3336503,7.53876793 C91.4617524,7.36053843 91.5385915,7.20772335 91.5385915,7.05501781 L91.5385915,7.05501781 C91.5385915,6.74938764 91.3336503,6.54574374 90.9235475,6.57115815 L90.9235475,6.57115815 C89.719146,6.67303487 88.6172703,6.67303487 87.2590802,6.59657256 L87.2590802,6.59657256 C86.7209856,6.57115815 86.567197,6.82584996 86.567197,7.08043222 L86.567197,7.08043222 C86.567197,7.30960007 86.7465619,7.56429188 87.1054019,7.64064465 L87.1054019,7.64064465 L87.6179202,7.76793578 C88.4635919,7.97157968 88.4635919,8.65908324 87.4128688,9.75409369 L87.4128688,9.75409369 C86.2854167,10.9507618 84.8247009,12.0967106 83.2359934,13.0897348 L83.2359934,13.0897348 L83.2359934,9.93232318 C83.2359934,7.8187646 83.2359934,5.50167165 83.3128326,0.358102157 L83.3128326,0.358102157 C83.3128326,0.10833987 83.1960856,0.00350543562 83.0177129,0 L83.0177129,0 L82.9985306,0 Z M19.6858182,10.2124294 C19.6858182,15.48329 23.5295401,19.1754996 29.0647158,19.1754996 L29.0647158,19.1754996 C31.2427807,19.1754996 33.2672777,18.5643488 35.1892489,17.3166329 L35.1892489,17.3166329 C35.7273435,16.9855883 35.881132,16.6291293 35.881132,16.2726703 L35.881132,16.2726703 C35.881132,15.5851667 35.9322847,14.9486016 35.9065981,14.3883891 L35.9065981,14.3883891 C35.881132,13.9554678 35.6760806,13.7008856 35.3173509,13.7008856 L35.3173509,13.7008856 C35.0354603,13.7008856 34.8304089,13.8791151 34.7278832,14.261098 L34.7278832,14.261098 C34.0616865,16.4763142 32.0628762,17.6732014 29.5259712,17.6732014 L29.5259712,17.6732014 C25.7845545,17.6732014 22.9658692,14.5921426 22.9658692,9.93232318 L22.9658692,9.93232318 C22.9658692,5.22167498 25.6308762,2.14050662 29.5772341,2.14050662 L29.5772341,2.14050662 C32.1397153,2.14050662 33.6772703,3.08270199 34.522942,5.0688599 L34.522942,5.0688599 C34.7023069,5.47625725 34.8560954,5.67990115 35.1892489,5.67990115 L35.1892489,5.67990115 C35.5479786,5.67990115 35.7017672,5.42531889 35.7273435,5.01792154 L35.7273435,5.01792154 C35.7529198,4.4322947 35.7529198,3.51551374 35.7529198,2.95530131 L35.7529198,2.95530131 C35.7529198,2.57342792 35.6248178,2.2679073 35.0610366,1.96227713 L35.0610366,1.96227713 C33.7028466,1.22383521 31.8065619,0.689146733 29.7821752,0.689146733 L29.7821752,0.689146733 C23.7858544,0.689146733 19.6858182,4.78875369 19.6858182,10.2124294 L19.6858182,10.2124294 Z M45.3876907,1.07102013 C43.7220337,1.07102013 42.6969971,0.943728995 42.0308005,0.943728995 L42.0308005,0.943728995 C41.6208079,0.943728995 41.4157565,1.17289685 41.4157565,1.50394142 L41.4157565,1.50394142 C41.4157565,1.78404764 41.569545,2.01321549 42.1076397,2.11509221 L42.1076397,2.11509221 C43.491406,2.31884566 43.8245594,2.59895187 43.8245594,3.28634589 L43.8245594,3.28634589 C43.850246,5.45073329 43.8758223,7.08043222 43.8758223,9.93232318 L43.8758223,9.93232318 C43.8758223,12.7842141 43.8758223,14.4647419 43.8245594,16.6291293 L43.8245594,16.6291293 C43.7989831,17.3675712 43.5426689,17.5713247 42.1589025,17.6986158 L42.1589025,17.6986158 C41.6208079,17.7749686 41.4670193,18.0295508 41.4670193,18.309657 L41.4670193,18.309657 C41.4670193,18.6407016 41.6720708,18.8698695 42.0820633,18.8698695 L42.0820633,18.8698695 C43.0814134,18.8698695 44.0296109,18.8189311 45.3876907,18.8189311 L45.3876907,18.8189311 C46.6690415,18.8189311 47.8477565,19.0226846 49.8978297,19.0226846 L49.8978297,19.0226846 C54.1516545,19.0226846 56.6885594,16.5527765 56.6885594,13.6753616 L56.6885594,13.6753616 C56.6885594,11.409207 55.3047931,9.95773759 53.0240921,9.16846685 L53.0240921,9.16846685 C54.305443,8.40450098 55.4073188,7.00407945 55.4073188,5.32344216 L55.4073188,5.32344216 C55.4073188,2.59895187 53.1266179,0.918314587 49.1289971,0.918314587 L49.1289971,0.918314587 C47.4121876,0.918314587 47.002195,1.07102013 45.3876907,1.07102013 L45.3876907,1.07102013 Z M46.9252456,3.28634589 C46.9252456,2.77707182 47.0534578,2.57342792 47.4377639,2.42061284 L47.4377639,2.42061284 C47.745341,2.31884566 48.2064862,2.2679073 48.9240559,2.2679073 L48.9240559,2.2679073 C51.0509683,2.2679073 52.3578955,3.41363702 52.3578955,5.65448674 L52.3578955,5.65448674 C52.3578955,6.90220273 51.9479029,7.94616527 51.2815961,8.73554556 L51.2815961,8.73554556 C49.9746689,8.5063777 48.4883768,8.42991539 46.8739827,8.5063777 L46.8739827,8.5063777 C46.8739827,6.49480538 46.8739827,5.04333595 46.9252456,3.28634589 L46.9252456,3.28634589 Z M47.9758585,17.4694479 C47.2071362,17.2912184 46.9509321,17.0365266 46.9252456,16.1198552 L46.9252456,16.1198552 C46.8739827,14.1846357 46.8739827,12.6823374 46.8739827,9.93232318 L46.8739827,9.93232318 L46.8739827,9.88138482 C51.2303332,9.7795081 53.5110341,10.7471179 53.5110341,13.9045295 L53.5110341,13.9045295 C53.5110341,15.7633962 52.1785306,17.622263 49.4878371,17.622263 L49.4878371,17.622263 C48.7959539,17.622263 48.3602748,17.5713247 47.9758585,17.4694479 L47.9758585,17.4694479 Z M16.0729445,1.07102013 C15.0223316,1.07102013 14.2022361,0.994667356 13.3566746,0.994667356 L13.3566746,0.994667356 C12.9722583,0.994667356 12.7673172,1.22383521 12.7673172,1.55487979 L12.7673172,1.55487979 C12.7673172,1.80957159 12.9209955,2.06415385 13.4335138,2.14050662 L13.4335138,2.14050662 C14.9198058,2.29332171 15.1760099,2.52248956 15.1760099,3.05717804 L15.1760099,3.05717804 C15.2272727,5.37438052 15.2272727,7.05501781 15.2272727,9.93232318 L15.2272727,9.93232318 L15.2272727,11.4346214 C15.2272727,15.2031838 13.3566746,17.112989 10.2303019,17.112989 L10.2303019,17.112989 C7.02720033,17.112989 5.3615434,15.126831 5.3615434,11.6128509 L5.3615434,11.6128509 L5.3615434,9.93232318 C5.3615434,7.05501781 5.3615434,5.37438052 5.41280625,3.05717804 L5.41280625,3.05717804 C5.41280625,2.52248956 5.66901028,2.29332171 7.07835294,2.16603058 L7.07835294,2.16603058 C7.59087125,2.08967781 7.74465981,1.834986 7.74465981,1.55487979 L7.74465981,1.55487979 C7.74465981,1.22383521 7.53971863,0.994667356 7.1296158,0.994667356 L7.1296158,0.994667356 C6.15584204,0.994667356 5.18217853,1.07102013 3.84956479,1.07102013 L3.84956479,1.07102013 C2.51706129,1.07102013 1.56886384,0.994667356 0.56951378,0.994667356 L0.56951378,0.994667356 C0.254440148,0.994667356 0.0598617853,1.14857789 0,1.38650933 L0,1.38650933 L0,1.717773 C0.0554520773,1.92930413 0.235809132,2.10490454 0.646463184,2.16603058 L0.646463184,2.16603058 C2.05580584,2.29332171 2.31212012,2.52248956 2.31212012,3.05717804 L2.31212012,3.05717804 C2.36327273,5.37438052 2.36327273,7.05501781 2.36327273,9.93232318 L2.36327273,9.93232318 L2.36327273,11.9438955 C2.36327273,16.7054821 5.13091567,19.1754996 9.58968161,19.1754996 L9.58968161,19.1754996 C14.0228712,19.1754996 16.9441925,16.4508998 16.9441925,11.6383749 L16.9441925,11.6383749 L16.9441925,9.93232318 C16.9441925,7.05501781 16.9441925,5.37438052 16.9698791,3.05717804 L16.9698791,3.05717804 C16.9954554,2.52248956 17.2517696,2.29332171 18.6611123,2.16603058 L18.6611123,2.16603058 C19.1479441,2.08967781 19.3017326,1.834986 19.3017326,1.55487979 L19.3017326,1.55487979 C19.3017326,1.22383521 19.0966812,0.994667356 18.7123752,0.994667356 L18.7123752,0.994667356 C17.89239,0.994667356 17.0979811,1.07102013 16.0729445,1.07102013 L16.0729445,1.07102013 Z M73.2677384,6.11282245 C71.9352349,6.46928143 70.6795705,6.67303487 69.6032711,6.74938764 L69.6032711,6.74938764 C69.1677022,6.80032601 69.0140239,6.9785555 69.0140239,7.25866171 L69.0140239,7.25866171 C69.0140239,7.53876793 69.1677022,7.74252137 69.6545339,7.8187646 L69.6545339,7.8187646 C70.7820963,8.02251804 70.9101983,8.14980917 70.9358848,8.7100216 L70.9358848,8.7100216 C70.9871477,9.98326154 70.9871477,11.3327447 70.9871477,12.7078614 L70.9871477,12.7078614 C70.9871477,14.3374508 70.9871477,15.5851667 70.9358848,16.9855883 L70.9358848,16.9855883 C70.9101983,17.5203863 70.8333591,17.6476774 69.7057968,17.8004925 L69.7057968,17.8004925 C69.2446516,17.9023692 69.090863,18.1060131 69.090863,18.3861194 L69.090863,18.3861194 C69.090863,18.6407016 69.2702279,18.8698695 69.6545339,18.8698695 L69.6545339,18.8698695 C70.4746294,18.8698695 71.3458774,18.7935167 72.3452275,18.7935167 L72.3452275,18.7935167 C73.3446878,18.7935167 74.4978264,18.8698695 75.3178116,18.8698695 L75.3178116,18.8698695 C75.6765413,18.8698695 75.8559062,18.6407016 75.8559062,18.3861194 L75.8559062,18.3861194 C75.8559062,18.1060131 75.7022279,17.8768453 75.1897096,17.8004925 L75.1897096,17.8004925 C73.8827824,17.6476774 73.7546804,17.5203863 73.7291041,16.9855883 L73.7291041,16.9855883 C73.6778412,15.5851667 73.6778412,14.3374508 73.6778412,12.7078614 L73.6778412,12.7078614 L73.6778412,10.5688884 C75.0103447,8.81189832 75.6252785,8.45543934 76.2915854,8.45543934 L76.2915854,8.45543934 C77.0859942,8.45543934 77.7521909,9.44846352 78.0853443,9.44846352 L78.0853443,9.44846352 C78.2647092,9.44846352 78.3672349,9.39752516 78.4953369,9.1429429 L78.4953369,9.1429429 C78.7516512,8.63366883 79.0079654,8.12439476 79.2641695,7.58970629 L79.2641695,7.58970629 C79.417958,7.25866171 79.3410781,7.08043222 79.0335418,6.87667878 L79.0335418,6.87667878 C78.4184977,6.46928143 77.7778774,6.18917521 77.1372571,6.18917521 L77.1372571,6.18917521 C76.0096948,6.18917521 74.9846582,7.13137058 73.7034175,9.21929567 L73.7034175,9.21929567 C73.7034175,8.37897703 73.7291041,7.46241516 73.7546804,6.44386702 L73.7546804,6.44386702 C73.7546804,6.18961339 73.6337441,6.08554577 73.4499696,6.08554577 L73.4499696,6.08554577 C73.3944072,6.08554577 73.3332225,6.09507618 73.2677384,6.11282245 L73.2677384,6.11282245 Z M109.604393,12.9115053 C109.604393,16.5781909 111.98784,19.0736229 115.242205,19.0736229 L115.242205,19.0736229 C117.471312,19.0736229 119.009198,17.978722 119.931929,16.8838211 L119.931929,16.8838211 C120.34093,16.3999614 120.085167,15.9670401 119.675064,15.9670401 L119.675064,15.9670401 C119.572538,15.9670401 119.470012,16.0179785 119.367487,16.0689169 L119.367487,16.0689169 C118.291518,16.731006 117.445846,17.087465 116.292818,17.087465 L116.292818,17.087465 C113.756133,17.087465 112.243603,14.8722488 112.243603,12.3512928 L112.243603,12.3512928 L112.243603,12.3003545 C114.754932,11.9438955 117.215549,11.4601454 119.752234,10.874409 L119.752234,10.874409 C120.085167,10.7980562 120.315574,10.5433644 120.239506,10.161491 L120.239506,10.161491 C119.829404,8.32803866 118.137178,6.31646635 115.216849,6.31646635 L115.216849,6.31646635 C112.295418,6.31646635 109.604393,9.01565177 109.604393,12.9115053 L109.604393,12.9115053 Z M115.062509,7.61523024 C116.702921,7.61523024 117.445846,9.09200454 117.445846,9.67763138 L117.445846,9.67763138 C117.445846,9.88138482 117.343431,10.0341999 117.113023,10.0851383 L117.113023,10.0851383 C115.728375,10.4414877 114.06371,10.7725323 112.320773,11.0781625 L112.320773,11.0781625 C112.62835,8.76095996 113.781489,7.61523024 115.062509,7.61523024 L115.062509,7.61523024 Z M92.0255335,12.9115053 C92.0255335,16.5781909 94.4086499,19.0736229 97.6631246,19.0736229 L97.6631246,19.0736229 C99.8925627,19.0736229 101.430007,17.978722 102.352629,16.8838211 L102.352629,16.8838211 C102.762621,16.3999614 102.506307,15.9670401 102.096314,15.9670401 L102.096314,15.9670401 C101.993789,15.9670401 101.891373,16.0179785 101.788847,16.0689169 L101.788847,16.0689169 C100.712548,16.731006 99.8668762,17.087465 98.7137376,17.087465 L98.7137376,17.087465 C96.1768326,17.087465 94.6649642,14.8722488 94.6649642,12.3512928 L94.6649642,12.3512928 L94.6649642,12.3003545 C97.1762929,11.9438955 99.6362485,11.4601454 102.173264,10.874409 L102.173264,10.874409 C102.506307,10.7980562 102.736935,10.5433644 102.660095,10.161491 L102.660095,10.161491 C102.250103,8.32803866 100.55887,6.31646635 97.6375483,6.31646635 L97.6375483,6.31646635 C94.7162271,6.31646635 92.0255335,9.01565177 92.0255335,12.9115053 L92.0255335,12.9115053 Z M97.4837598,7.61523024 C99.1237302,7.61523024 99.8668762,9.09200454 99.8668762,9.67763138 L99.8668762,9.67763138 C99.8668762,9.88138482 99.7644607,10.0341999 99.533833,10.0851383 L99.533833,10.0851383 C98.1499564,10.4414877 96.4842995,10.7725323 94.7418034,11.0781625 L94.7418034,11.0781625 C95.0493805,8.76095996 96.2024089,7.61523024 97.4837598,7.61523024 L97.4837598,7.61523024 Z M57.9696898,12.9115053 C57.9696898,16.5781909 60.3528063,19.0736229 63.6071707,19.0736229 L63.6071707,19.0736229 C65.8366088,19.0736229 67.3741637,17.978722 68.2966746,16.8838211 L68.2966746,16.8838211 C68.7066672,16.3999614 68.4504632,15.9670401 68.0404706,15.9670401 L68.0404706,15.9670401 C67.9379449,15.9670401 67.8354192,16.0179785 67.7330037,16.0689169 L67.7330037,16.0689169 C66.6567042,16.731006 65.8110325,17.087465 64.6578939,17.087465 L64.6578939,17.087465 C62.1209889,17.087465 60.6091205,14.8722488 60.6091205,12.3512928 L60.6091205,12.3512928 L60.6091205,12.3003545 C63.120339,11.9438955 65.5804048,11.4601454 68.1173097,10.874409 L68.1173097,10.874409 C68.4504632,10.7980562 68.6810909,10.5433644 68.6041415,10.161491 L68.6041415,10.161491 C68.1942592,8.32803866 66.5029157,6.31646635 63.5815944,6.31646635 L63.5815944,6.31646635 C60.6602731,6.31646635 57.9696898,9.01565177 57.9696898,12.9115053 L57.9696898,12.9115053 Z M63.4278058,7.61523024 C65.0678865,7.61523024 65.8110325,9.09200454 65.8110325,9.67763138 L65.8110325,9.67763138 C65.8110325,9.88138482 65.7085068,10.0341999 65.4778791,10.0851383 L65.4778791,10.0851383 C64.0941127,10.4414877 62.4284558,10.7725323 60.6858494,11.0781625 L60.6858494,11.0781625 C60.9934266,8.76095996 62.1465652,7.61523024 63.4278058,7.61523024 L63.4278058,7.61523024 Z M131.463316,6.67303487 C130.668466,6.67303487 130.078667,6.59657256 129.489971,6.59657256 L129.489971,6.59657256 C129.13058,6.59657256 128.951987,6.80032601 128.951987,7.05501781 L128.951987,7.05501781 C128.951987,7.33501448 129.13058,7.51335352 129.540683,7.64064465 L129.540683,7.64064465 C130.668466,7.94616527 130.770991,8.42991539 130.335533,9.75409369 L130.335533,9.75409369 C129.643209,11.8420188 128.874817,13.8535911 127.696323,16.5272526 L127.696323,16.5272526 C126.696421,14.0573445 125.85086,11.8420188 125.005298,9.34669635 L125.005298,9.34669635 C124.697721,8.37897703 124.800247,7.97157968 126.004097,7.64064465 L126.004097,7.64064465 C126.466014,7.51335352 126.619251,7.36053843 126.619251,7.08043222 L126.619251,7.08043222 C126.619251,6.80032601 126.4142,6.59657256 126.055911,6.59657256 L126.055911,6.59657256 C125.28752,6.59657256 124.49267,6.67303487 123.442057,6.67303487 L123.442057,6.67303487 C122.314274,6.67303487 121.494068,6.59657256 120.700321,6.59657256 L120.700321,6.59657256 C120.315574,6.59657256 120.135878,6.82584996 120.135878,7.08043222 L120.135878,7.08043222 C120.135878,7.38595284 120.290218,7.53876793 120.751032,7.66605906 L120.751032,7.66605906 C121.340831,7.8187646 121.520527,8.02251804 121.878815,8.93918946 L121.878815,8.93918946 C123.288819,12.4277552 124.544484,15.5087044 126.183793,19.6847737 L126.183793,19.6847737 C125.082468,21.696346 124.262262,22.1546817 123.159835,22.3584352 L123.159835,22.3584352 C122.263562,22.5111407 121.673764,23.0713531 121.673764,23.7842711 L121.673764,23.7842711 C121.673764,24.3351722 122.036573,24.9310963 122.889631,25 L122.889631,25 L123.238108,25 C124.455518,24.9087491 125.656833,23.8279795 127.952086,19.048099 L127.952086,19.048099 C129.592497,15.48329 130.821703,12.3258784 132.103826,9.09200454 L132.103826,9.09200454 C132.513928,8.04793245 132.71898,7.84428855 133.35949,7.66605906 L133.35949,7.66605906 C133.820304,7.53876793 134,7.36053843 134,7.08043222 L134,7.08043222 C134,6.82584996 133.84566,6.59657256 133.462016,6.59657256 L133.462016,6.59657256 C132.897573,6.59657256 132.231707,6.67303487 131.463316,6.67303487 L131.463316,6.67303487 Z" id="path-1"></path>
    </defs>
    <g id="Logos" stroke="none" stroke-width="1" fill="none" fill-rule="evenodd">
        <g id="Artboard" transform="translate(-47, -172)">
            <g id="ucb_dark" transform="translate(47, 172)">
                <mask id="mask-2" fill="white">
                    <use xlink:href="#path-1"></use>
                </mask>
                <g id="Clip-2"></g>
                <polygon id="Fill-1" fill="#000000" mask="url(#mask-2)" points="0 25 134 25 134 0 0 0"></polygon>
            </g>
        </g>
    </g>
</svg>