<?xml version="1.0" encoding="UTF-8"?>
<svg width="100px" height="17px" viewBox="0 0 100 17" version="1.1" xmlns="http://www.w3.org/2000/svg" xmlns:xlink="http://www.w3.org/1999/xlink">
    <title>ucdavis-grey</title>
    <g id="Symbols" stroke="none" stroke-width="1" fill="none" fill-rule="evenodd" fill-opacity="0.45">
        <g id="lower-credits" transform="translate(0, -41)" fill="#1F1F1F">
            <g id="ucdavis-grey" transform="translate(0, 41)">
                <path d="M87.6503864,15.4848882 L89.2511321,11.1556651 L89.530506,11.4012638 C90.5132055,12.2214883 91.8461923,12.9182885 93.1052092,12.9457856 C94.2306523,12.9726577 94.7808417,12.6664405 94.6310679,11.6931075 C94.5195017,10.965998 93.7165308,10.8378867 93.2155527,10.7366476 L92.1142568,10.5119842 C89.9721859,10.103278 88.1715381,8.75217299 88.1715381,6.19432241 C88.1715381,2.32661237 91.4335502,0.157157618 94.7142077,0.157157618 C96.4393573,0.157157618 98.0190123,0.605859478 99.4996333,1.58981641 L98.1097936,5.42596735 C97.3474755,4.86477755 96.1929946,4.0748623 94.7313247,4.02018067 C94.2508259,4.00143268 93.1516696,4.25921752 93.5040965,5.40097003 C93.6557043,5.88654293 94.3373279,6.09058354 94.7557775,6.19432241 L95.9976774,6.50085203 C98.3200882,7.05329276 100,8.4043978 100,11.1656641 C100,15.0536844 96.7175086,16.9787904 93.4558021,16.9787904 C91.5542862,16.9787904 89.3507775,16.4257247 87.6503864,15.4848882" id="Fill-10"></path>
                <polygon id="Fill-11" points="80.977811 16.7350665 86.4690074 16.7350665 86.4690074 0.422754123 80.977811 0.422754123"></polygon>
                <polyline id="Fill-12" points="74.6796701 0.422754123 80.4034743 0.422754123 74.5583227 16.7350665 69.9150294 16.7350665 64.0900514 0.422754123 69.7930708 0.422754123 72.2374402 10.2657606 74.6796701 0.422754123"></polyline>
                <path d="M50.5364399,16.7350665 L56.3418556,16.7350665 L56.7817015,14.6862238 L60.9255451,14.6862238 L61.4760402,16.7350665 L67.2823729,16.7350665 L61.8458898,0.422754123 L55.7577378,0.422754123 L50.5364399,16.7350665 Z M58.8635573,5.13099899 L58.8635573,5.13099899 C58.9650367,5.82561197 59.9642418,10.8175764 59.9642418,10.8175764 L57.7699029,10.8175764 L58.8635573,5.13099899 L58.8635573,5.13099899 Z" id="Fill-13"></path>
                <path d="M41.8082956,12.0511941 L42.1839527,12.0511941 C44.0255591,12.0511941 45.3915572,10.9216277 45.3915572,8.79341857 C45.3915572,6.50085203 44.1805291,5.2222392 42.1579715,5.2222392 L41.8082956,5.2222392 L41.8082956,12.0511941 Z M36.2825595,0.422754123 L41.9076353,0.422754123 C47.0133935,0.422754123 50.9154593,2.81905953 50.9154593,8.81435382 C50.9154593,13.6444606 47.7341416,16.7350665 43.2693542,16.7350665 L36.2825595,16.726005 L36.2825595,0.422754123 L36.2825595,0.422754123 Z" id="Fill-14"></path>
                <path d="M32.9401586,0.934574212 L33.2375665,3.61022465 C33.3081742,4.24671886 33.6621294,5.77093034 33.2253401,5.56657726 C32.9499397,5.44065327 32.7249734,4.74854003 32.4997014,4.13610573 C32.3853842,3.82457665 31.841308,2.35129722 31.69887,2.24287135 C31.0117445,1.71636534 29.2969874,1.12424136 28.1370047,1.1192419 C24.6179318,1.10549337 22.2903247,3.75833376 22.2903247,8.46626616 C22.2903247,11.841529 23.8718138,15.8929694 27.8955326,15.8929694 C29.337029,15.8929694 32.0983687,15.4289567 32.8502943,13.3326191 C33.1889665,12.3833459 33.5004348,11.5409363 33.7257069,11.7955965 C33.8916807,11.9833888 33.6752728,12.7433073 33.5750161,13.1513885 C33.1006305,15.0961799 33.074955,15.6848667 32.9245699,15.7598587 C31.1068051,16.6922586 28.7758357,16.9997256 26.7349385,16.9997256 C20.2482049,16.9997256 18.0064885,13.1313907 18.0064885,9.26399308 C18.0064885,2.55158823 22.0402942,-0.226551215 28.295337,0.0143604381 C29.875909,0.0749789345 31.4580093,0.362448093 32.9401586,0.934574212" id="Fill-15"></path>
                <path d="M13.7819505,1.23172983 L12.7442321,0.86114459 C12.3942505,0.539929052 12.8194246,0.450876106 12.8194246,0.450876106 C12.8194246,0.450876106 14.3208305,0.734908133 18.0624245,0.412442729 C18.0624245,0.412442729 18.3873419,0.477435756 18.1617642,0.747094326 L16.9354531,1.2842242 C16.1358444,1.64074845 16.1358444,1.43608291 16.1358444,2.33161183 L16.1288142,10.6447824 C16.1288142,17.1465849 9.65858623,16.9997256 8.39742974,16.9997256 C7.79772324,16.9997256 1.9106961,16.9997256 1.9106961,11.7802856 L1.9106961,2.9815421 C1.9106961,1.4463943 2.07086236,1.48826481 1.57202392,1.30765918 L0.0706180412,0.731471002 C0.0706180412,0.731471002 -0.182469107,0.364322892 0.269603226,0.387757878 C1.49622004,0.450876106 3.27333198,0.720222209 7.40219816,0.412442729 C7.40219816,0.412442729 7.76440621,0.502120608 7.52660211,0.770529312 L6.32627212,1.12955329 C5.37505569,1.56450663 5.50098794,1.23172983 5.47531243,2.22912282 L5.50465587,10.9056919 C5.50465587,13.0339011 6.575997,15.6670561 9.89852997,15.6670561 C14.4840534,15.6670561 14.5268459,11.6134285 14.5268459,10.7129001 L14.5347931,2.11663489 C14.5836988,1.30765918 14.4840534,1.53825944 13.7819505,1.23172983" id="Fill-17"></path>
            </g>
        </g>
    </g>
</svg>