<?xml version="1.0" encoding="UTF-8"?>
<svg width="125px" height="21px" viewBox="0 0 125 21" version="1.1" xmlns="http://www.w3.org/2000/svg" xmlns:xlink="http://www.w3.org/1999/xlink">
    <title>UCDavis wordmark dark grey</title>
    <g id="Main" stroke="none" stroke-width="1" fill="none" fill-rule="evenodd">
        <g id="chat-UCDAVIS" transform="translate(-1825, -57)" fill="#000000">
            <g id="ucdavis-blue" transform="translate(1825, 57)">
                <path d="M109.562983,19.1283913 L111.563915,13.7805275 L111.913133,14.0839141 C113.141507,15.0971326 114.80774,15.9578858 116.381511,15.9918528 C117.788315,16.0250477 118.476052,15.6467795 118.288835,14.4444269 C118.149377,13.5462328 117.145663,13.3879777 116.519441,13.2629176 L115.142821,12.9853922 C112.465232,12.4805199 110.214423,10.8115078 110.214423,7.65181004 C110.214423,2.87405057 114.291938,0.194135881 118.39276,0.194135881 C120.549197,0.194135881 122.523765,0.74841465 124.374542,1.96389086 L122.637242,6.70266555 C121.684344,6.0094311 120.241243,5.03365343 118.414156,4.96610553 C117.813532,4.94294625 116.439587,5.26138635 116.880121,6.67178651 C117.06963,7.27161186 117.92166,7.52366202 118.444722,7.65181004 L119.997097,8.03046427 C122.90011,8.71289105 125,10.3819032 125,13.7928791 C125,18.5957278 120.896886,20.9737999 116.819753,20.9737999 C114.442858,20.9737999 111.688472,20.2906011 109.562983,19.1283913" id="Fill-10"></path>
                <polygon id="Fill-11" points="101.222264 20.6727293 108.086259 20.6727293 108.086259 0.522225681 101.222264 0.522225681"></polygon>
                <polyline id="Fill-12" points="93.3495876 0.522225681 100.504343 0.522225681 93.1979034 20.6727293 87.3937868 20.6727293 80.1125643 0.522225681 87.2413384 0.522225681 90.2968003 12.6812337 93.3495876 0.522225681"></polyline>
                <path d="M63.1705499,20.6727293 L70.4273195,20.6727293 L70.9771269,18.1418059 L76.1569314,18.1418059 L76.8450502,20.6727293 L84.1029661,20.6727293 L77.3073622,0.522225681 L69.6971723,0.522225681 L63.1705499,20.6727293 Z M73.5794466,6.33829287 L73.5794466,6.33829287 C73.7062958,7.1963442 74.9553023,13.3628885 74.9553023,13.3628885 L72.2123786,13.3628885 L73.5794466,6.33829287 L73.5794466,6.33829287 Z" id="Fill-13"></path>
                <path d="M52.2603695,14.8867691 L52.7299409,14.8867691 C55.0319488,14.8867691 56.7394465,13.4914225 56.7394465,10.8624582 C56.7394465,8.03046427 55.2256614,6.45100137 52.6974644,6.45100137 L52.2603695,6.45100137 L52.2603695,14.8867691 Z M45.3531994,0.522225681 L52.3845442,0.522225681 C58.7667418,0.522225681 63.6443241,3.48236766 63.6443241,10.8883194 C63.6443241,16.8549219 59.667677,20.6727293 54.0866928,20.6727293 L45.3531994,20.6615356 L45.3531994,0.522225681 L45.3531994,0.522225681 Z" id="Fill-14"></path>
                <path d="M41.1751982,1.15447403 L41.5469582,4.45968928 C41.6352177,5.24594683 42.0776618,7.1287963 41.5316751,6.87636015 C41.1874247,6.72080698 40.9062167,5.86584356 40.6246267,5.10930708 C40.4817303,4.72447704 39.801635,2.90454362 39.6235876,2.77060578 C38.7646807,2.120216 36.6212343,1.38876874 35.1712558,1.38259293 C30.7724147,1.36560946 27.8629059,4.64264759 27.8629059,10.4583288 C27.8629059,14.6277712 29.8397672,19.6324916 34.8694158,19.6324916 C36.6712862,19.6324916 40.1229609,19.0592994 41.0628679,16.4697059 C41.4862081,15.2970744 41.8755435,14.2564507 42.1571336,14.5710309 C42.3646008,14.8030097 42.094091,15.7417325 41.9687701,16.2458329 C41.3757881,18.6482222 41.3436937,19.3754236 41.1557123,19.4680607 C38.8835063,20.6198489 35.9697947,20.9996611 33.4186732,20.9996611 C25.3102561,20.9996611 22.5081107,16.2211296 22.5081107,11.4437562 C22.5081107,3.15196193 27.5503678,-0.279857384 35.3691712,0.0177393647 C37.3448862,0.0926210368 39.3225117,0.447729997 41.1751982,1.15447403" id="Fill-15"></path>
                <path d="M17.2274381,1.52154861 L15.9302901,1.06376685 C15.4928131,0.666971182 16.0242808,0.556964601 16.0242808,0.556964601 C16.0242808,0.556964601 17.9010382,0.907827694 22.5780306,0.509488077 C22.5780306,0.509488077 22.9841774,0.589773582 22.7022053,0.922881226 L21.1693163,1.5863946 C20.1698055,2.02680691 20.1698055,1.77398477 20.1698055,2.88022638 L20.1610177,13.1494371 C20.1610177,21.1810754 12.0732328,20.9996611 10.4967872,20.9996611 C9.74715405,20.9996611 2.38837012,20.9996611 2.38837012,14.5521175 L2.38837012,3.68308142 C2.38837012,1.78672237 2.58857795,1.83844476 1.96502991,1.6153437 L0.0882725514,0.903581826 C0.0882725514,0.903581826 -0.228086384,0.450045925 0.337004033,0.478995025 C1.87027506,0.556964601 4.09166497,0.889686258 9.2527477,0.509488077 C9.2527477,0.509488077 9.70550777,0.620266634 9.40825263,0.951830326 L7.90784015,1.39533054 C6.71881961,1.93262584 6.87623492,1.52154861 6.84414054,2.75362231 L6.88081983,13.4717371 C6.88081983,16.1007014 8.21999624,19.3534223 12.3731625,19.3534223 C18.1050667,19.3534223 18.1585574,14.3459999 18.1585574,13.2335825 L18.1684914,2.61466663 C18.2296235,1.6153437 18.1050667,1.90020284 17.2274381,1.52154861" id="Fill-17"></path>
            </g>
        </g>
    </g>
</svg>