<?xml version="1.0" encoding="UTF-8"?>
<svg width="40px" height="40px" viewBox="0 0 40 40" version="1.1" xmlns="http://www.w3.org/2000/svg" xmlns:xlink="http://www.w3.org/1999/xlink">
    <title>ph-robot</title>
    <defs>
        <rect id="path-1" x="0" y="0" width="40" height="40"></rect>
        <linearGradient x1="2.84217094e-12%" y1="34.6742006%" x2="100%" y2="59.0230793%" id="linearGradient-3">
            <stop stop-color="#FFBF00" offset="0%"></stop>
            <stop stop-color="#C29307" offset="100%"></stop>
        </linearGradient>
        <linearGradient x1="2.84217094e-12%" y1="40.1330364%" x2="100%" y2="55.8091844%" id="linearGradient-4">
            <stop stop-color="#FFBF00" offset="0%"></stop>
            <stop stop-color="#C29307" offset="100%"></stop>
        </linearGradient>
        <path d="M11.0487582,1.26381471 C15.6340714,1.26381471 20.100982,8.18317457 20.3271124,13.4477109 C20.4294673,15.8306333 20.6224286,18.2067486 20.9059965,20.5760569 L20.9060586,20.5760494 C21.1306374,22.4549097 19.7895773,24.1600839 17.9107171,24.3846627 C17.8960484,24.386416 17.8813684,24.3880745 17.8666783,24.389638 C15.5543205,24.633787 13.283434,24.7556829 11.0540568,24.7556829 C8.84101211,24.7556829 6.62809053,24.6355664 4.41529212,24.3953336 L4.41534655,24.3948383 C2.55988708,24.1909017 1.20910756,22.5392149 1.37743688,20.6801869 C1.58776041,18.3429684 1.69291292,16.0453736 1.69291292,13.7874042 C1.69291292,8.84160607 6.46344492,1.26381471 11.0487582,1.26381471 Z" id="path-5"></path>
        <linearGradient x1="17.6782003%" y1="4.74410862%" x2="87.5155599%" y2="76.3780486%" id="linearGradient-7">
            <stop stop-color="#FFE599" offset="0%"></stop>
            <stop stop-color="#FFD24C" offset="100%"></stop>
        </linearGradient>
        <linearGradient x1="3.47691755%" y1="56.0217656%" x2="97.390487%" y2="56.0217656%" id="linearGradient-8">
            <stop stop-color="#FFC519" offset="0%"></stop>
            <stop stop-color="#C79A15" offset="100%"></stop>
        </linearGradient>
        <path d="M0.435471793,0 C0.15581914,0.320999414 0.0112120363,0.552730101 0.00165048334,0.695192063 C-0.0191464259,1.00505475 0.163486546,1.24308924 0.162282479,1.52839113 C0.151702382,4.03533037 0.126584593,5.93150376 1.01305577,6.60187486 C2.22923489,7.52157915 5.41646786,7.32063118 7.70770192,7.32063118 C10.0031964,7.32063118 12.3906039,7.52500258 13.6095875,6.60187486 C14.2606106,6.1088596 14.5318598,4.86408385 14.6416485,3.35464871 C14.6871667,2.72883972 14.6871667,1.67475645 14.6416485,0.192398902 L0.435471793,0 Z" id="path-9"></path>
        <linearGradient x1="3.47691755%" y1="56.0217656%" x2="97.390487%" y2="56.0217656%" id="linearGradient-11">
            <stop stop-color="#FFC519" offset="0%"></stop>
            <stop stop-color="#C79A15" offset="100%"></stop>
        </linearGradient>
        <linearGradient x1="3.47691755%" y1="56.0217656%" x2="97.390487%" y2="56.0217656%" id="linearGradient-12">
            <stop stop-color="#FFC519" offset="0%"></stop>
            <stop stop-color="#C79A15" offset="100%"></stop>
        </linearGradient>
        <path d="M0,0.0902270436 C0.227249703,1.23406184 0.774193784,1.80597923 1.64083224,1.80597923 C2.5074707,1.80597923 3.14349712,1.20398616 3.54891151,0 C2.83276746,0.327841982 2.20090383,0.498723814 1.65332063,0.512645495 C1.10573743,0.526567176 0.554630554,0.385761025 0,0.0902270436 Z" id="path-13"></path>
    </defs>
    <g id="Main" stroke="none" stroke-width="1" fill="none" fill-rule="evenodd">
        <g id="conversation" transform="translate(-577, -187)">
            <g id="ph-wonk" transform="translate(577, 187)">
                <mask id="mask-2" fill="white">
                    <use xlink:href="#path-1"></use>
                </mask>
                <use id="Rectangle" fill="#FFF2CD" xlink:href="#path-1"></use>
                <g id="policy-wonk" mask="url(#mask-2)">
                    <g transform="translate(9, 7)" id="robot">
                        <g transform="translate(0, -0)">
                            <g id="feet" transform="translate(5.5261, 24.3951)" fill="#021529" stroke="#000000" stroke-width="0.342619363">
                                <path d="M0,0 L3.27091261,0.179141043 L3.27091261,1.29767368 C3.25690218,1.5024687 2.71175008,1.60486621 1.6354563,1.60486621 C0.559162528,1.60486621 0.0140104268,1.5024687 0,1.29767368 L0,0 Z" id="left-foot"></path>
                                <path d="M7.81437263,0 L11.0852852,0.179141043 L11.0852852,1.29767368 C11.0712748,1.5024687 10.5261227,1.60486621 9.44982894,1.60486621 C8.37353516,1.60486621 7.82838306,1.5024687 7.81437263,1.29767368 L7.81437263,0 Z" id="right-foot" transform="translate(9.4498, 0.8024) scale(-1, 1) translate(-9.4498, -0.8024)"></path>
                            </g>
                            <g id="ears" transform="translate(0, 8.3764)" stroke="#000000" stroke-linejoin="round" stroke-width="0.239833554">
                                <path d="M1.99905884,0.0467064472 C2.35631652,0.341936861 2.55549906,1.12250309 2.55510391,2.41671738 C2.55471107,3.70042509 2.36251599,4.52408634 2.00603015,4.9026208 L0.442782252,4.90309813 L0.444266553,0.0471811956 Z" id="left-ear" fill="#FFD65E" transform="translate(1.499, 2.4749) rotate(-165) translate(-1.499, -2.4749)"></path>
                                <path d="M20.9999461,0.300612245 C21.3573401,0.596086614 21.5569305,1.37674222 21.5573265,2.67081662 C21.5577185,3.95464649 21.3659728,4.77823401 21.0096717,5.15653169 L19.4465246,5.15605439 L19.4450403,0.300137462 Z" id="ear" fill="#FFC003" transform="translate(20.5012, 2.7283) rotate(-15) translate(-20.5012, -2.7283)"></path>
                            </g>
                            <g id="antennae-keyframe" transform="translate(7.1378, 0)" stroke="#000000" stroke-width="0.171309682">
                                <path d="" id="antennae-copy" fill="url(#linearGradient-3)" transform="translate(1.1551, 1.4768) rotate(-270) translate(-1.1551, -1.4768)"></path>
                                <path d="" id="antennae" fill="url(#linearGradient-4)" transform="translate(1.0883, 0.6348) rotate(-15) translate(-1.0883, -0.6348)"></path>
                            </g>
                            <mask id="mask-6" fill="white">
                                <use xlink:href="#path-5"></use>
                            </mask>
                            <path stroke="#000000" stroke-width="0.274095491" d="M11.0487582,1.12676697 C13.2680055,1.12676697 15.4674386,2.70977927 17.1825816,4.96202403 C19.0526824,7.41775194 20.344514,10.6592905 20.4640339,13.4418296 C20.5662393,15.8212738 20.7589192,18.1939208 21.0420751,20.5597869 C21.1588881,21.5367883 20.8686212,22.4686335 20.3049003,23.185425 C19.7411759,23.9022209 18.9039939,24.4039603 17.9251258,24.5209509 C15.5637774,24.7705987 13.2881182,24.8927306 11.0540568,24.8927306 C8.83608135,24.8927306 6.61822913,24.7723489 4.40028277,24.531557 C3.43545508,24.4252505 2.60183654,23.9426394 2.0313199,23.2449257 C1.46083226,22.5472476 1.15341922,21.6344901 1.24094069,20.6679037 C1.45088942,18.3348503 1.55586518,16.0413502 1.55586518,13.7874042 C1.55586518,11.1582785 2.88779255,7.79065727 4.8287788,5.19248314 C6.5876703,2.83805822 8.84364967,1.12676697 11.0487582,1.12676697 Z"></path>
                            <path d="M11.0487582,1.26381471 C15.6340714,1.26381471 20.100982,8.18317457 20.3271124,13.4477109 C20.4294673,15.8306333 20.6224286,18.2067486 20.9059965,20.5760569 L20.9060586,20.5760494 C21.1306374,22.4549097 19.7895773,24.1600839 17.9107171,24.3846627 C17.8960484,24.386416 17.8813684,24.3880745 17.8666783,24.389638 C15.5543205,24.633787 13.283434,24.7556829 11.0540568,24.7556829 C8.84101211,24.7556829 6.62809053,24.6355664 4.41529212,24.3953336 L4.41534655,24.3948383 C2.55988708,24.1909017 1.20910756,22.5392149 1.37743688,20.6801869 C1.58776041,18.3429684 1.69291292,16.0453736 1.69291292,13.7874042 C1.69291292,8.84160607 6.46344492,1.26381471 11.0487582,1.26381471 Z" id="body-fill" fill="url(#linearGradient-7)" mask="url(#mask-6)"></path>
                            <path d="M11.0609858,1.12372245 C8.19586192,2.08224448 5.81090065,4.34324026 3.90610197,7.90670979 C2.0013033,11.4701793 1.14243739,15.2776881 1.32950423,19.329236 L-0.7092873,14.0045663 C0.381132325,9.55505963 0.926342138,7.33030629 0.926342138,7.33030629 C0.926342138,7.33030629 3.34659764,3.69547242 3.34659764,3.69547242 C3.34659764,3.69547242 7.40462542,1.41765841 7.40462542,1.41765841 C7.40462542,1.41765841 9.04008172,0.215965762 9.04008172,0.215965762 C9.04008172,0.215965762 9.71371641,0.518551323 11.0609858,1.12372245 Z" id="left-glare" fill="#FFFFFF" mask="url(#mask-6)"></path>
                            <path d="M14.1250052,1.83210668 C14.1250052,1.83210668 17.8262736,5.06867688 19.0490838,8.79947201 C19.6220923,10.5477212 19.823347,14.5964648 19.652848,20.945703 L21.0129422,20.4031001 L21.3597965,5.67186318 C20.0576081,4.86472124 19.406514,4.46115027 19.406514,4.46115027 C19.406514,4.46115027 17.8427454,3.48282075 14.7152083,1.52616173 C14.3217396,1.73012503 14.1250052,1.83210668 14.1250052,1.83210668 Z" id="right-glare" fill="#FFC003" mask="url(#mask-6)"></path>
                            <path d="M21.6804664,21.744086 C21.6804664,21.744086 21.6169774,22.4415302 21.4899995,23.8364187 L17.6845575,25.0708905 L9.80912133,25.3990911 C6.32823069,25.1802907 4.58778537,25.0708905 4.58778537,25.0708905 C4.58778537,25.0708905 2.24719963,24.92324 2.24719963,24.92324 C2.24719963,24.92324 1.72587586,23.9313106 0.683228322,21.9474518 L0.683228322,19.3193105 L3.46007626,20.2796152 L3.46007626,17.9946984 C3.42570718,17.3128748 3.76435649,16.971963 4.4760242,16.971963 C5.18769192,16.971963 9.45528774,16.971963 17.2788117,16.971963 C17.9609813,16.9172628 18.3020661,17.2074503 18.3020661,17.8425254 C18.3020661,18.4776005 18.3020661,19.2899638 18.3020661,20.2796152 C20.7657256,19.415784 21.9975553,18.9838685 21.9975553,18.9838685 C21.9975553,18.9838685 21.6804664,21.744086 21.6804664,21.744086 Z" id="separator" fill="url(#linearGradient-8)" mask="url(#mask-6)"></path>
                            <g id="grill" mask="url(#mask-6)">
                                <g transform="translate(3.48, 16.9569)">
                                    <mask id="mask-10" fill="white">
                                        <use xlink:href="#path-9"></use>
                                    </mask>
                                    <use id="grill" stroke="none" fill="#FEFFFD" fill-rule="evenodd" xlink:href="#path-9"></use>
                                    <path d="M14.7342114,0.00853824989 C5.78771961,-0.437820375 0.94097301,-0.32287473 0.193971641,0.353375185 C-0.926530411,1.36775006 0.101887707,3.24025148 0.101887707,3.24025148 C0.101887707,3.24025148 -0.258931883,5.9040886 -0.0310595941,6.10858274 C2.47889214,8.36103046 8.5969591,7.60166115 8.5969591,7.60166115 C8.5969591,7.60166115 10.2630035,7.51440065 13.5950924,7.33987966 L14.3465813,5.94193887 L14.9160421,3.00646545 L14.7342114,0.00853824989 Z" id="Path-11" stroke="none" fill="#1D4776" fill-rule="evenodd" mask="url(#mask-10)"></path>
                                    <path d="M13.5834707,0.192398902 C14.5183335,1.19158687 14.3676307,2.15222911 13.1313621,3.07432563 C11.2769593,4.45747041 5.23224153,4.67866939 4.95483674,5.95625236 C4.67743194,7.23383532 11.2149769,8.50588436 13.5834707,6.92375083 C15.1624665,5.86899514 15.5151925,3.62521117 14.6416485,0.192398902 L13.5834707,0.192398902 Z" id="Path-12" stroke="none" fill="#133458" fill-rule="evenodd" mask="url(#mask-10)"></path>
                                    <g id="grills" stroke="none" stroke-width="1" fill="none" fill-rule="evenodd" mask="url(#mask-10)">
                                        <g transform="translate(3.1286, 2.6093)" stroke="#000000">
                                            <rect id="Rectangle" stroke-width="0.171309682" fill="url(#linearGradient-11)" fill-rule="evenodd" x="-0.0856548408" y="-0.0856548408" width="9.06232921" height="1" rx="0.308357427"></rect>
                                            <rect id="Rectangle-Copy" stroke-width="0.171309682" fill="url(#linearGradient-12)" fill-rule="evenodd" x="2.51913604" y="1.84061385" width="3.85274746" height="1.39711703" rx="0.308357427"></rect>
                                            <line x1="3.31484823" y1="1.88170107" x2="3.31484823" y2="3.23687829" id="Path-17" stroke-width="0.239833554" fill="none"></line>
                                            <line x1="4.11365077" y1="1.88170107" x2="4.11365077" y2="3.23687829" id="Path-17-Copy" stroke-width="0.239833554" fill="none"></line>
                                            <line x1="4.9124533" y1="1.88170107" x2="4.9124533" y2="3.23687829" id="Path-17-Copy-2" stroke-width="0.239833554" fill="none"></line>
                                            <line x1="5.71125584" y1="1.88170107" x2="5.71125584" y2="3.23687829" id="Path-17-Copy-3" stroke-width="0.239833554" fill="none"></line>
                                        </g>
                                    </g>
                                </g>
                            </g>
                            <path d="M21.6804664,21.744086 C21.6804664,21.744086 21.6169774,22.4415302 21.4899995,23.8364187 L17.6845575,25.0708905 L9.80912133,25.3990911 C6.32823069,25.1802907 4.58778537,25.0708905 4.58778537,25.0708905 C4.58778537,25.0708905 2.24719963,24.92324 2.24719963,24.92324 C2.24719963,24.92324 1.39924129,23.3623628 -0.296675404,20.2406084 L0.683228322,19.3193105 L3.46007626,20.2796152 L3.46007626,17.9946984 C3.42570718,17.3128748 3.76435649,16.971963 4.4760242,16.971963 C5.18769192,16.971963 9.45528774,16.971963 17.2788117,16.971963 C17.9609813,16.9172628 18.3020661,17.2074503 18.3020661,17.8425254 C18.3020661,18.4776005 18.3020661,19.2899638 18.3020661,20.2796152 C19.2427394,19.9497291 19.8653095,19.7313991 20.1697765,19.6246252 C20.7985088,19.4041341 21.6804664,19.0833488 21.6804664,19.0833488 C21.6804664,19.0833488 21.6804664,21.744086 21.6804664,21.744086 Z" id="lower-yellow" stroke="#000000" stroke-width="0.376881299" stroke-linejoin="round" mask="url(#mask-6)"></path>
                            <g id="face" transform="translate(8.5535, 4.0741)">
                                <g id="eye">
                                    <g id="retina-keyframe" transform="translate(2.6743, 5.2654) rotate(-360) translate(-2.6743, -5.2654)translate(0, 2.5686)">
                                        <ellipse id="eye-outline" fill="#2C101D" cx="2.67425197" cy="2.69677616" rx="2.67425197" ry="2.69677616"></ellipse>
                                        <ellipse id="eye-grey" fill="#E0E0E0" cx="2.81317415" cy="2.69677616" rx="2.39640761" ry="2.41659163"></ellipse>
                                        <ellipse id="eye-white" fill="#FFFFFF" cx="2.91736578" cy="2.69677616" rx="2.22275488" ry="2.24147629"></ellipse>
                                        <g id="eye-keyframe" transform="translate(1.7018, 0.8157)">
                                            <ellipse id="Oval" fill="#29121D" transform="translate(1.5281, 1.541) rotate(-180) translate(-1.5281, -1.541)" cx="1.52814398" cy="1.54101495" rx="1.52814398" ry="1.54101495"></ellipse>
                                            <ellipse id="Oval" fill="#FFFFFF" cx="0.798802536" cy="1.05069201" rx="1" ry="1"></ellipse>
                                        </g>
                                    </g>
                                    <path d="M2.9080718,0.66868998 C2.50056137,0.62213295 2.04010254,0.677662881 1.52669532,0.835279772 C1.95057075,0.226485622 2.41102958,-0.0495185489 2.9080718,0.00726725907 C3.40511402,0.0640530671 3.84059854,0.442416484 4.21452535,1.14235751 C3.75106675,0.873136185 3.31558223,0.715247009 2.9080718,0.66868998 Z" id="eyelid" fill="#000000"></path>
                                </g>
                                <g id="mouth" transform="translate(0.8598, 10.2136)">
                                    <mask id="mask-14" fill="white">
                                        <use xlink:href="#path-13"></use>
                                    </mask>
                                    <path stroke-opacity="0.99" stroke="#000000" stroke-width="0.205571618" d="M3.50612746,-0.0934582663 C3.43709517,0.654159143 3.1664992,1.11867404 2.83848675,1.42913477 C2.50053608,1.74900193 2.10127293,1.90876504 1.64083224,1.90876504 C1.17664379,1.90876504 0.798994497,1.7540768 0.506361046,1.44808178 C0.221912023,1.1506449 0.0175209531,0.705888652 -0.100815413,0.110256398 C0.585866494,0.285937911 1.1198475,0.423389421 1.65070826,0.409892889 C2.1868717,0.396261542 2.80514508,0.227442888 3.50612746,-0.0934582663 Z"></path>
                                    <path d="M0,0.0902270436 C0.227249703,1.23406184 0.774193784,1.80597923 1.64083224,1.80597923 C2.5074707,1.80597923 3.14349712,1.20398616 3.54891151,0 C2.83276746,0.327841982 2.20090383,0.498723814 1.65332063,0.512645495 C1.10573743,0.526567176 0.554630554,0.385761025 0,0.0902270436 Z" id="mouth-copy" fill="#1D4776" mask="url(#mask-14)"></path>
                                    <path d="M0.0299862876,1.18894172 C0.357898443,1.00617073 0.901116851,0.91478524 1.65964151,0.91478524 C2.41816617,0.91478524 3.0374471,1.05603552 3.5174843,1.33853607 C2.57053494,2.03668139 2.09706026,2.38575406 2.09706026,2.38575406 C2.09706026,2.38575406 0.723072391,2.31742604 0.723072391,2.31742604 C0.723072391,2.31742604 0.148816097,2.0519999 0.148816097,2.0519999 C0.148816097,2.0519999 0.109206161,1.76431384 0.0299862876,1.18894172 Z" id="Path-18" fill="#6884A3" mask="url(#mask-14)"></path>
                                </g>
                            </g>
                        </g>
                    </g>
                </g>
            </g>
        </g>
    </g>
</svg>