<?xml version="1.0" encoding="UTF-8"?>
<svg width="62px" height="72px" viewBox="0 0 62 72" version="1.1" xmlns="http://www.w3.org/2000/svg" xmlns:xlink="http://www.w3.org/1999/xlink">
    <title>policy-wonk</title>
    <defs>
        <path d="M0,0 L3.74928099,0 C4.61682413,0.82681686 5.05059571,2.85227291 5.05059571,6.07636816 C5.05059571,9.30046341 4.61682413,11.4300656 3.74928099,12.4651747 L0,12.4651747 L0,11.9662613 L0,0 Z" id="path-1"></path>
        <path d="M0,0 L3.74928099,0 C4.61682413,0.82681686 5.05059571,2.85227291 5.05059571,6.07636816 C5.05059571,9.30046341 4.61682413,11.4300656 3.74928099,12.4651747 L0,12.4651747 L0,11.9662613 L0,0 Z" id="path-3"></path>
        <linearGradient x1="2.84217094e-12%" y1="47.89863%" x2="100%" y2="51.2371837%" id="linearGradient-5">
            <stop stop-color="#FFBF00" offset="0%"></stop>
            <stop stop-color="#C29307" offset="100%"></stop>
        </linearGradient>
        <linearGradient x1="2.84217094e-12%" y1="46.4446389%" x2="100%" y2="52.0932223%" id="linearGradient-6">
            <stop stop-color="#FFBF00" offset="0%"></stop>
            <stop stop-color="#C29307" offset="100%"></stop>
        </linearGradient>
        <linearGradient x1="17.7370721%" y1="4.74410862%" x2="87.447228%" y2="76.3780486%" id="linearGradient-7">
            <stop stop-color="#FFE599" offset="0%"></stop>
            <stop stop-color="#FFD24C" offset="100%"></stop>
        </linearGradient>
        <path d="M30.2740726,3.19745243 C42.645888,3.19745243 54.6982365,21.8838772 55.3083678,36.1012852 C55.582897,42.4984245 56.0990029,48.8773981 56.8566855,55.2382058 L56.8566363,55.2382117 C57.4690098,60.3771966 53.7994662,65.0395938 48.6604814,65.6519672 C48.6167985,65.6571726 48.5730794,65.6620703 48.5293276,65.6666599 C42.3386954,66.3153301 36.2583712,66.6395969 30.2883691,66.6395969 C24.3646377,66.6395969 18.4412333,66.3203371 12.5181559,65.6818176 L12.5181553,65.6818231 C7.43805297,65.1342064 3.73307439,60.6178473 4.18908124,55.5287038 C4.75010647,49.2528475 5.03069574,43.0828379 5.03069574,37.0186612 C5.03069574,23.6620375 17.9022572,3.19745243 30.2740726,3.19745243 Z" id="path-8"></path>
        <linearGradient x1="3.47691755%" y1="56.0217656%" x2="97.390487%" y2="56.0217656%" id="linearGradient-10">
            <stop stop-color="#FFC519" offset="0%"></stop>
            <stop stop-color="#C79A15" offset="100%"></stop>
        </linearGradient>
        <path d="M1.1749637,0 C0.420421796,0.866891089 0.0302516396,1.49270304 0.00445323451,1.87743584 C-0.0516597305,2.71425108 0.441109529,3.35708707 0.437860789,4.12757342 C0.409314209,10.8978141 0.341542907,16.0186204 2.73336591,17.8290247 C6.014787,20.3127783 14.6143866,19.7700982 20.796456,19.7700982 C26.9900206,19.7700982 33.4315795,20.3220237 36.7205673,17.8290247 C38.4771186,16.4975876 39.2089868,13.1359459 39.505212,9.05956506 C39.6280264,7.36950517 39.6280264,4.52284765 39.505212,0.519592518 L1.1749637,0 Z" id="path-11"></path>
        <linearGradient x1="3.47691755%" y1="56.0217656%" x2="97.390487%" y2="56.0217656%" id="linearGradient-13">
            <stop stop-color="#FFC519" offset="0%"></stop>
            <stop stop-color="#C79A15" offset="100%"></stop>
        </linearGradient>
        <linearGradient x1="3.47691755%" y1="56.0217656%" x2="97.390487%" y2="56.0217656%" id="linearGradient-14">
            <stop stop-color="#FFC519" offset="0%"></stop>
            <stop stop-color="#C79A15" offset="100%"></stop>
        </linearGradient>
        <path d="M2.31977142,27.8265051 C2.93292285,30.9155456 4.40865435,32.4600658 6.74696592,32.4600658 C9.08527749,32.4600658 10.8013656,30.8343232 11.8952302,27.5828379 C9.96297357,28.468208 8.25811728,28.9296915 6.78066134,28.9672884 C5.30320541,29.0048853 3.8162421,28.6246242 2.31977142,27.8265051 Z" id="path-15"></path>
    </defs>
    <g id="Main" stroke="none" stroke-width="1" fill="none" fill-rule="evenodd">
        <g id="login" transform="translate(-630, -335)">
            <g id="policy-wonk" transform="translate(630.9911, 336)">
                <g id="feet" transform="translate(15.373, 65.6659)" fill="#021529" stroke="#000000" stroke-width="0.9370786">
                    <path d="M0,0 L8.82537894,0.483788341 L8.82537894,3.50449783 C8.78757685,4.05756731 7.31668036,4.33410205 4.41268947,4.33410205 C1.50869858,4.33410205 0.0378020878,4.05756731 0,3.50449783 L0,0 Z" id="foot"></path>
                    <path d="M21.0842685,0 L29.9096474,0.483788341 L29.9096474,3.50449783 C29.8718454,4.05756731 28.4009489,4.33410205 25.496958,4.33410205 C22.5929671,4.33410205 21.1220706,4.05756731 21.0842685,3.50449783 L21.0842685,0 Z" id="foot-copy" transform="translate(25.497, 2.1671) scale(-1, 1) translate(-25.497, -2.1671)"></path>
                </g>
                <g id="ears" transform="translate(-0, 22.5383)">
                    <g id="left-ear" transform="translate(3.9581, 6.6584) rotate(-166) translate(-3.9581, -6.6584)translate(1.4328, 0.4258)">
                        <mask id="mask-2" fill="white">
                            <use xlink:href="#path-1"></use>
                        </mask>
                        <path stroke="#000000" stroke-width="0.65595502" d="M3.87360429,-0.32797751 C4.83909855,0.469069482 5.37857322,2.57806403 5.37857322,6.07636816 C5.37857322,9.54625812 4.85940294,11.7715667 3.89645792,12.7931522 L-0.32797751,12.7931522 L-0.32797751,-0.32797751 Z"></path>
                        <path d="M5.00185793,7.93484423 C4.62253146,7.89789023 4.15399216,8.38021841 3.59624003,9.38182879 C3.03848791,10.3834392 2.56994861,11.5839152 2.19062213,12.983257 C2.33624018,9.38909146 2.4090492,7.59200871 2.4090492,7.59200871 C2.4090492,7.59200871 3.27331878,7.70628721 5.00185793,7.93484423 Z" id="Path-16" fill="#FFFFFF" mask="url(#mask-2)" transform="translate(3.5962, 10.2876) rotate(-180) translate(-3.5962, -10.2876)"></path>
                    </g>
                </g>
                <g id="ears-copy" transform="translate(56.0597, 29.1967) scale(-1, 1) translate(-56.0597, -29.1967)translate(52.1016, 22.5383)">
                    <g id="left-ear" transform="translate(3.9581, 6.6584) rotate(-166) translate(-3.9581, -6.6584)translate(1.4328, 0.4258)">
                        <mask id="mask-4" fill="white">
                            <use xlink:href="#path-3"></use>
                        </mask>
                        <path stroke="#000000" stroke-width="0.65595502" d="M3.87360429,-0.32797751 C4.83909855,0.469069482 5.37857322,2.57806403 5.37857322,6.07636816 C5.37857322,9.54625812 4.85940294,11.7715667 3.89645792,12.7931522 L-0.32797751,12.7931522 L-0.32797751,-0.32797751 Z"></path>
                        <path d="M5.00185793,7.93484423 C4.62253146,7.89789023 4.15399216,8.38021841 3.59624003,9.38182879 C3.03848791,10.3834392 2.56994861,11.5839152 2.19062213,12.983257 C2.33624018,9.38909146 2.4090492,7.59200871 2.4090492,7.59200871 C2.4090492,7.59200871 3.27331878,7.70628721 5.00185793,7.93484423 Z" id="Path-16" fill="#FFFFFF" mask="url(#mask-4)" transform="translate(3.5962, 10.2876) rotate(-180) translate(-3.5962, -10.2876)"></path>
                    </g>
                </g>
                <path d="" id="antennae-copy" stroke="#000000" stroke-width="0.4685393" fill="url(#linearGradient-5)" transform="translate(22.8386, 3.7726) rotate(-270) translate(-22.8386, -3.7726)"></path>
                <path d="M25.1062677,0.440354001 L25.7604567,2.03285597 L20.2102623,2.55709138 L19.5560733,0.964589414 L25.1062677,0.440354001 Z" id="antennae" stroke="#000000" stroke-width="0.4685393" fill="url(#linearGradient-6)" transform="translate(22.6583, 1.4987) rotate(-15) translate(-22.6583, -1.4987)"></path>
                <mask id="mask-9" fill="white">
                    <use xlink:href="#path-8"></use>
                </mask>
                <path stroke="#000000" stroke-width="0.74966288" d="M30.2740726,2.82262099 C36.2632399,2.82262099 42.1992598,7.09818048 46.8281081,13.1821086 C51.8744605,19.8147832 55.3603379,28.5698634 55.6828545,36.0852143 C55.9265201,41.7631602 56.360779,47.4267741 56.985456,53.0745001 L57.2288345,55.1938597 C57.5472687,57.8661318 56.7524045,60.4144912 55.2098637,62.374391 C53.6673229,64.3342909 51.3771055,65.7057312 48.6995987,66.024752 C42.3643526,66.6895273 36.2710804,67.0144283 30.2883691,67.0144283 C24.890972,67.0144283 19.4938455,66.7499844 14.0951819,66.2209065 L12.4779825,66.0544956 C9.83632932,65.7697349 7.5522083,64.4531012 5.98778146,62.546069 C4.42335462,60.6390368 3.57862197,58.1416061 3.81573859,55.4953291 C4.37575225,49.2307886 4.6558643,43.0719047 4.6558643,37.0186612 C4.6558643,29.9176376 8.24989032,20.8219654 13.48755,13.8045215 C18.2344584,7.44458879 24.3230964,2.82262099 30.2740726,2.82262099 Z"></path>
                <path d="M30.3070644,2.81911922 C22.5765602,5.40770404 16.1416016,11.5137498 11.0021888,21.1372564 C5.86277605,30.760763 3.54543589,41.0433219 4.05016834,51.9849332 L-1.45077588,37.6051291 C1.49132853,25.5887903 2.96238073,19.580621 2.96238073,19.580621 C2.96238073,19.580621 9.49256803,9.76438777 9.49256803,9.76438777 C9.49256803,9.76438777 20.4416936,3.61292275 20.4416936,3.61292275 C20.4416936,3.61292275 24.8543831,0.367631314 24.8543831,0.367631314 C24.8543831,0.367631314 26.6719435,1.18479395 30.3070644,2.81911922 Z" id="Path-19" fill="#FFFFFF" mask="url(#mask-9)"></path>
                <path d="M38.5742167,4.73218184 C38.5742167,4.73218184 48.5607555,13.472864 51.8600684,23.5482502 C53.4061251,28.2695723 53.9491385,39.2036104 53.4891085,56.3503644 L57.1588324,54.885011 L58.0946937,15.1018291 C54.5812077,12.9220614 52.8244648,11.8321775 52.8244648,11.8321775 C52.8244648,11.8321775 48.6051988,9.19010064 40.1666669,3.90594684 C39.1050335,4.45677017 38.5742167,4.73218184 38.5742167,4.73218184 Z" id="Path-14" fill="#FFC003" mask="url(#mask-9)"></path>
                <path d="M58.9599058,58.5064777 C58.9599058,58.5064777 58.7886038,60.3899957 58.4459996,64.1570319 L48.1783858,67.4908466 L26.9293593,68.3771854 C17.5374303,67.7862929 12.8414658,67.4908466 12.8414658,67.4908466 C12.8414658,67.4908466 6.52623868,67.0921018 6.52623868,67.0921018 C6.52623868,67.0921018 5.11963436,64.413297 2.30642571,59.0556875 L2.30642571,51.9581285 L9.79874919,54.5515275 L9.79874919,48.3808808 C9.7060166,46.5395478 10.6197397,45.6188813 12.5399186,45.6188813 C14.4600975,45.6188813 25.9746669,45.6188813 47.0836269,45.6188813 C48.9242157,45.471158 49.8445102,46.2548383 49.8445102,47.9699222 C49.8445102,49.6850062 49.8445102,51.8788746 49.8445102,54.5515275 C56.4918075,52.2186649 59.8154562,51.0522336 59.8154562,51.0522336 C59.8154562,51.0522336 58.9599058,58.5064777 58.9599058,58.5064777 Z" id="separator" fill="url(#linearGradient-10)" mask="url(#mask-9)"></path>
                <g id="Group-3" mask="url(#mask-9)">
                    <g transform="translate(9.8524, 45.5783)">
                        <mask id="mask-12" fill="white">
                            <use xlink:href="#path-11"></use>
                        </mask>
                        <use id="grill" stroke="none" fill="#FEFFFD" fill-rule="evenodd" xlink:href="#path-11"></use>
                        <path d="M39.7549598,0.0230583996 C15.6160756,-1.1823778 2.53887657,-0.871955569 0.523362573,0.954325104 C-2.49990842,3.69374611 0.274907259,8.75062388 0.274907259,8.75062388 C0.274907259,8.75062388 -0.698634374,15.944583 -0.0838031217,16.4968399 C6.68839712,22.5798008 23.1957961,20.5290478 23.1957961,20.5290478 C23.1957961,20.5290478 27.6910165,20.2933921 36.6814575,19.8220807 L38.7090797,16.0468015 L40.2455643,8.11926128 L39.7549598,0.0230583996 Z" id="Path-11" stroke="none" fill="#1D4776" fill-rule="evenodd" mask="url(#mask-12)"></path>
                        <path d="M36.6501006,0.519592518 C39.1724911,3.21799977 38.7658738,5.81231042 35.4302485,8.30252449 C30.4268107,12.0378456 14.1173182,12.6352156 13.3688414,16.0854565 C12.6203645,19.5356973 30.2595736,22.9709932 36.6501006,18.6982831 C40.9104519,15.8498096 41.8621557,9.7902461 39.505212,0.519592518 L36.6501006,0.519592518 Z" id="Path-12" stroke="none" fill="#133458" fill-rule="evenodd" mask="url(#mask-12)"></path>
                        <g id="grills" stroke="none" stroke-width="1" fill="none" fill-rule="evenodd" mask="url(#mask-12)">
                            <g transform="translate(8.4413, 7.0467)" stroke="#000000">
                                <rect id="Rectangle" stroke-width="0.4685393" fill="url(#linearGradient-13)" fill-rule="evenodd" x="-0.23426965" y="-0.23426965" width="24.4577515" height="2.17103875" rx="0.84337074"></rect>
                                <rect id="Rectangle-Copy" stroke-width="0.4685393" fill="url(#linearGradient-14)" fill-rule="evenodd" x="6.79381985" y="4.96781201" width="10.4015725" height="3.7789549" rx="0.84337074"></rect>
                                <line x1="8.85746358" y1="5.08172232" x2="8.85746358" y2="8.74151423" id="Path-17" stroke-width="0.65595502" fill="none"></line>
                                <line x1="11.0127444" y1="5.08172232" x2="11.0127444" y2="8.74151423" id="Path-17-Copy" stroke-width="0.65595502" fill="none"></line>
                                <line x1="13.1680251" y1="5.08172232" x2="13.1680251" y2="8.74151423" id="Path-17-Copy-2" stroke-width="0.65595502" fill="none"></line>
                                <line x1="15.3233059" y1="5.08172232" x2="15.3233059" y2="8.74151423" id="Path-17-Copy-3" stroke-width="0.65595502" fill="none"></line>
                            </g>
                        </g>
                    </g>
                </g>
                <path d="M58.9599058,58.5064777 C58.9599058,58.5064777 58.7886038,60.3899957 58.4459996,64.1570319 L48.1783858,67.4908466 L26.9293593,68.3771854 C17.5374303,67.7862929 12.8414658,67.4908466 12.8414658,67.4908466 C12.8414658,67.4908466 6.52623868,67.0921018 6.52623868,67.0921018 C6.52623868,67.0921018 4.23832867,62.8767964 -0.337491369,54.4461857 L2.30642571,51.9581285 L9.79874919,54.5515275 L9.79874919,48.3808808 C9.7060166,46.5395478 10.6197397,45.6188813 12.5399186,45.6188813 C14.4600975,45.6188813 25.9746669,45.6188813 47.0836269,45.6188813 C48.9242157,45.471158 49.8445102,46.2548383 49.8445102,47.9699222 C49.8445102,49.6850062 49.8445102,51.8788746 49.8445102,54.5515275 C52.3825781,53.6606371 54.0623592,53.071015 54.8838535,52.7826613 C56.5802611,52.1872031 58.9599058,51.3208902 58.9599058,51.3208902 C58.9599058,51.3208902 58.9599058,58.5064777 58.9599058,58.5064777 Z" id="separator" stroke="#000000" stroke-width="1.03078646" stroke-linejoin="round" mask="url(#mask-9)"></path>
                <g id="face" transform="translate(23.5414, 10.7868)">
                    <g id="eyes">
                        <g id="eye" transform="translate(0, 6.9368)">
                            <ellipse id="Oval" fill="#2C101D" cx="7.21550522" cy="7.28291432" rx="7.21550522" ry="7.28291432"></ellipse>
                            <ellipse id="Oval" fill="#E0E0E0" cx="7.59033666" cy="7.28291432" rx="6.46584234" ry="6.52624789"></ellipse>
                            <ellipse id="Oval" fill="#FFFFFF" cx="7.87146024" cy="7.28291432" rx="5.99730304" ry="6.05333138"></ellipse>
                            <ellipse id="Oval" fill="#29121D" cx="8.71483098" cy="6.6208312" rx="4.12314584" ry="4.16166532"></ellipse>
                            <ellipse id="Oval" fill="#FFFFFF" cx="6.74696592" cy="5.29666496" rx="2.06157292" ry="2.08083266"></ellipse>
                        </g>
                        <path d="M7.84638378,1.80586431 C6.74686373,1.68013239 5.50448152,1.83009653 4.11923715,2.25575674 C5.26291226,0.611647122 6.50529447,-0.133729804 7.84638378,0.0196259615 C9.18747309,0.172981727 10.3624711,1.19479006 11.3713779,3.08505095 C10.1209019,2.35799178 8.94590383,1.93159623 7.84638378,1.80586431 Z" id="Path-9" fill="#000000"></path>
                    </g>
                    <mask id="mask-16" fill="white">
                        <use xlink:href="#path-15"></use>
                    </mask>
                    <path stroke-opacity="0.99" stroke="#000000" stroke-width="0.56224716" d="M12.355719,27.0526133 C12.2971167,27.2555055 12.2324456,27.462127 12.1616797,27.6724768 C11.5969315,29.3511767 10.8664691,30.60609 9.98110534,31.4448427 C9.06850527,32.3093979 7.99033047,32.7411894 6.74696592,32.7411894 C5.49335032,32.7411894 4.4734703,32.3230163 3.68317446,31.4958822 C2.91532334,30.692239 2.36347337,29.4905983 2.04402742,27.8812382 C2.0039017,27.6790859 1.96962185,27.4814784 1.94135987,27.2886747 C2.10663582,27.388428 2.27687315,27.4850191 2.45206505,27.5784549 C3.90173383,28.351613 5.34182222,28.7226881 6.77350989,28.6862558 C8.21971011,28.6494543 9.88736772,28.1936212 11.7781258,27.3272659 C11.9756953,27.2367386 12.1682792,27.1451294 12.355719,27.0526133 Z"></path>
                    <path d="M2.40067861,30.7936942 C3.28543139,30.3001028 4.75111051,30.0533071 6.79771596,30.0533071 C8.8443214,30.0533071 10.5152278,30.4347676 11.8104352,31.1976887 C9.25543362,33.0831001 7.97793282,34.0258058 7.97793282,34.0258058 C7.97793282,34.0258058 4.2707217,33.8412792 4.2707217,33.8412792 C4.2707217,33.8412792 2.72129803,33.1244693 2.72129803,33.1244693 C2.72129803,33.1244693 2.61442489,32.3475443 2.40067861,30.7936942 Z" id="Path-18" fill="#6884A3" mask="url(#mask-16)"></path>
                </g>
            </g>
        </g>
    </g>
</svg>